<svg width="131" height="49" viewBox="0 0 131 49" fill="none" xmlns="http://www.w3.org/2000/svg">
<path d="M67.5419 20.3897H63.6968V18.2018H74.168V20.3897H70.3228V29.804H67.5419V20.3897Z" fill="#292F42"/>
<path d="M83.342 27.3179H77.7631L76.6988 29.804H73.8493L79.2051 18.2018H81.9516L87.3245 29.804H84.4063L83.342 27.3179ZM82.4666 25.2792L80.5612 20.8372L78.6557 25.2792H82.4666Z" fill="#292F42"/>
<path d="M95.8889 29.804L92.9879 25.7764L90.1384 29.804H86.9455L91.3915 23.9035L87.1687 18.2018H90.3272L93.0909 21.9643L95.8031 18.2018H98.8071L94.6187 23.804L99.0989 29.804H95.8889Z" fill="#292F42"/>
<path d="M108.624 23.8206H111.165V28.5278C110.513 29.0029 109.757 29.3676 108.899 29.6217C108.041 29.8759 107.177 30.0029 106.307 30.0029C105.06 30.0029 103.938 29.7488 102.942 29.2405C101.947 28.7212 101.163 28.0085 100.591 27.1024C100.03 26.1853 99.7496 25.1521 99.7496 24.0029C99.7496 22.8538 100.03 21.8261 100.591 20.9201C101.163 20.0029 101.953 19.2902 102.96 18.7819C103.967 18.2626 105.1 18.0029 106.358 18.0029C107.411 18.0029 108.367 18.1742 109.225 18.5167C110.083 18.8593 110.804 19.3565 111.388 20.0085L109.603 21.5996C108.745 20.7267 107.709 20.2902 106.496 20.2902C105.729 20.2902 105.048 20.4449 104.453 20.7543C103.858 21.0637 103.395 21.5002 103.063 22.0637C102.731 22.6272 102.565 23.2736 102.565 24.0029C102.565 24.7212 102.731 25.362 103.063 25.9256C103.395 26.4891 103.852 26.9311 104.436 27.2516C105.031 27.5609 105.706 27.7156 106.461 27.7156C107.263 27.7156 107.984 27.5499 108.624 27.2184V23.8206Z" fill="#292F42"/>
<path d="M114.116 18.2018H116.897V29.804H114.116V18.2018Z" fill="#292F42"/>
<path d="M128.236 23.8206H130.776V28.5278C130.124 29.0029 129.369 29.3676 128.51 29.6217C127.652 29.8759 126.788 30.0029 125.918 30.0029C124.671 30.0029 123.55 29.7488 122.554 29.2405C121.558 28.7212 120.774 28.0085 120.202 27.1024C119.641 26.1853 119.361 25.1521 119.361 24.0029C119.361 22.8538 119.641 21.8261 120.202 20.9201C120.774 20.0029 121.564 19.2902 122.571 18.7819C123.578 18.2626 124.711 18.0029 125.97 18.0029C127.023 18.0029 127.978 18.1742 128.837 18.5167C129.695 18.8593 130.416 19.3565 131 20.0085L129.214 21.5996C128.356 20.7267 127.32 20.2902 126.107 20.2902C125.341 20.2902 124.66 20.4449 124.065 20.7543C123.469 21.0637 123.006 21.5002 122.674 22.0637C122.342 22.6272 122.176 23.2736 122.176 24.0029C122.176 24.7212 122.342 25.362 122.674 25.9256C123.006 26.4891 123.464 26.9311 124.047 27.2516C124.642 27.5609 125.318 27.7156 126.073 27.7156C126.874 27.7156 127.595 27.5499 128.236 27.2184V23.8206Z" fill="#292F42"/>
<path d="M14.0008 33.3835L10.1798 28.3404C8.82396 30.3816 7.7362 35.127 8.82395 38.5467C10.3517 43.3497 15.6031 45.7229 17.3287 46.7118C20.6813 48.6329 24.149 47.9926 25.4637 47.4322C28.6273 45.6711 35.8667 41.6446 39.5151 39.6274C43.1635 37.6101 44.3221 34.6243 44.4454 33.3835V16.0928L44.1989 19.4549L41.1174 26.6593L35.8174 32.663L25.4637 36.2653C20.7522 37.253 18.2394 36.6576 14.0008 33.3835Z" fill="url(#paint0_linear)"/>
<path d="M31.5037 23.295C22.0129 34.1017 10.1802 28.2181 10.1802 28.2181C13.0151 35.3025 22.1567 40.5857 34.5852 33.9816C45.4318 28.2181 44.4458 18.2343 44.4458 16.3307C44.4458 12.8725 42.2271 10.407 41.1178 9.60652C40.0085 8.80602 31.5037 4.32324 31.5037 4.32324C31.5037 4.32324 40.9946 12.4883 31.5037 23.295Z" fill="url(#paint1_linear)"/>
<path d="M30.4672 14.6194L34.2648 19.3321C35.6207 17.2909 36.7318 12.8759 35.644 9.45623C34.1163 4.65326 28.8648 2.28002 27.1392 1.29117C23.7866 -0.63002 20.319 0.0103779 19.0042 0.570724C15.8406 2.33182 8.6013 6.35831 4.95288 8.37556C1.30445 10.3928 0.145832 13.3787 0.0225754 14.6194V31.9102L0.269089 28.5481L3.35052 21.3436L8.6506 15.3399L19.0042 11.7376L30.4672 14.6194Z" fill="url(#paint2_linear)"/>
<path d="M12.9664 24.7045C22.4572 13.8978 34.2666 19.331 34.2666 19.331C31.4317 12.2466 22.3134 7.41381 9.88494 14.0179C-0.961731 19.7815 0.0243301 29.7652 0.0243301 31.6689C0.0243301 35.127 2.24297 37.5925 3.35229 38.393C4.46161 39.1935 12.6965 43.8262 12.6965 43.8262C12.6965 43.8262 3.47554 35.5113 12.9664 24.7045Z" fill="url(#paint3_linear)"/>
<defs>
<linearGradient id="paint0_linear" x1="45.1106" y1="34.8244" x2="14.7746" y2="43.1453" gradientUnits="userSpaceOnUse">
<stop stop-color="#B4D57C"/>
<stop offset="1" stop-color="#86BE26"/>
</linearGradient>
<linearGradient id="paint1_linear" x1="46.2203" y1="7.20503" x2="16.4524" y2="42.9163" gradientUnits="userSpaceOnUse">
<stop offset="0.376514" stop-color="#C4E58B"/>
<stop offset="1" stop-color="#B4D57C"/>
</linearGradient>
<linearGradient id="paint2_linear" x1="28.9648" y1="7.32468" x2="-2.54287" y2="22.1172" gradientUnits="userSpaceOnUse">
<stop stop-color="#B4D57C"/>
<stop offset="0.684968" stop-color="#86BE26"/>
</linearGradient>
<linearGradient id="paint3_linear" x1="2.21963" y1="36.5016" x2="28.6558" y2="14.693" gradientUnits="userSpaceOnUse">
<stop stop-color="#C4E58B"/>
<stop offset="0.876654" stop-color="#86BE26"/>
</linearGradient>
</defs>
</svg>
