<svg xmlns="http://www.w3.org/2000/svg" xmlns:xlink="http://www.w3.org/1999/xlink" width="474" height="478" viewBox="0 0 474 478">
    <defs>
        <rect id="b" width="314" height="314" rx="5"/>
        <filter id="a" width="130.3%" height="130.3%" x="-15.1%" y="-8.8%" filterUnits="objectBoundingBox">
            <feMorphology in="SourceAlpha" radius="2.5" result="shadowSpreadOuter1"/>
            <feOffset dy="20" in="shadowSpreadOuter1" result="shadowOffsetOuter1"/>
            <feGaussianBlur in="shadowOffsetOuter1" result="shadowBlurOuter1" stdDeviation="15"/>
            <feColorMatrix in="shadowBlurOuter1" values="0 0 0 0 0.160784314 0 0 0 0 0.184313725 0 0 0 0 0.258823529 0 0 0 0.1 0"/>
        </filter>
    </defs>
    <g fill="none" fill-rule="evenodd">
        <path stroke="#C4E58B" stroke-dasharray="5" stroke-width="1.6" d="M236.961 477.095c130.366 0 236.048-106.577 236.048-238.048C473.009 107.577 367.327 1 236.961 1 106.596 1 .914 107.577.914 239.047s105.682 238.048 236.047 238.048z" opacity=".4"/>
        <path stroke="#C4E58B" stroke-dasharray="5" stroke-width="1.6" d="M236.962 417.039c99.407 0 179.992-80.586 179.992-179.992 0-99.407-80.585-179.992-179.992-179.992-99.406 0-179.991 80.585-179.991 179.992 0 99.406 80.585 179.992 179.991 179.992z" opacity=".4"/>
        <path fill="#FFF" d="M326.905 173.107c-3.924.429-3.259 6.526.665 6.132 3.924-.394 3.258-6.517-.665-6.132z"/>
        <path fill="#FAFAFA" d="M352.043 241.769c-3.924.43-3.258 6.526.666 6.132 3.924-.394 3.258-6.561-.666-6.132zM343.161 289.441c-3.924.43-3.258 6.527.666 6.132 3.923-.394 3.267-6.561-.666-6.132zM366.592 350.314c-3.924.43-3.259 6.526.665 6.132 3.924-.394 3.25-6.561-.665-6.132zM422.865 349.44c-3.924.429-3.258 6.526.666 6.132 3.924-.395 3.267-6.57-.666-6.132z"/>
        <path fill="#FFF" d="M416.761 173.004c-3.924.429-3.258 6.524.666 6.13 3.924-.394 3.258-6.559-.666-6.13zM457.198 164.166c-3.924.429-3.258 6.525.666 6.131 3.924-.394 3.267-6.56-.666-6.131z"/>
        <path fill="#FAFAFA" d="M382.007 193.551c-5.045.552-4.195 8.39.876 7.839 5.071-.552 4.169-8.391-.876-7.839zM432.281 274.392c-5.045.552-4.195 8.391.876 7.839 5.071-.552 4.16-8.4-.876-7.839zM356.08 399.485c-5.605.613-4.659 9.319.955 8.706 5.615-.613 4.677-9.328-.955-8.706zM328.271 193.713c-5.605.613-4.659 9.32.955 8.707 5.614-.613 4.66-9.321-.955-8.707z"/>
        <path fill="#FFF" d="M205.428 59.937c3.828.964 2.33 6.911-1.498 5.948-3.827-.964-2.347-6.911 1.498-5.948z"/>
        <path fill="#FAFAFA" d="M171.095 124.453c3.827.963 2.33 6.91-1.498 5.947-3.827-.964-2.33-6.911 1.498-5.947zM173.347 172.89c3.827.964 2.33 6.91-1.498 5.946-3.827-.963-2.33-6.909 1.498-5.946zM141.8 229.978c3.827.963 2.33 6.911-1.498 5.947-3.828-.963-2.312-6.919 1.498-5.947zM86.163 221.376c3.827.964 2.33 6.911-1.498 5.948-3.827-.964-2.338-6.92 1.498-5.948z"/>
        <path fill="#FFF" d="M116.433 47.447c3.827.963 2.329 6.91-1.498 5.947-3.828-.964-2.347-6.91 1.498-5.947zM77.553 33.146c3.827.964 2.329 6.912-1.498 5.948-3.828-.964-2.304-6.911 1.498-5.948z"/>
        <path fill="#FAFAFA" d="M148.033 72.574c4.923 1.235 3.005 8.88-1.927 7.646-4.931-1.235-2.995-8.89 1.927-7.646zM87.186 145.751c4.923 1.235 3.005 8.882-1.927 7.647-4.931-1.235-3.039-8.89 1.927-7.647zM145.424 280.117c5.465 1.375 3.337 9.871-2.137 8.496s-3.337-9.871 2.137-8.496zM201.235 80.11c5.466 1.376 3.337 9.872-2.137 8.497s-3.302-9.871 2.137-8.496z"/>
        <g fill="#3AD29F" opacity=".5">
            <path d="M78.43 353.535h-2.628v14.889h2.628z"/>
            <path d="M84.562 362.295v-2.627h-14.89v2.627z"/>
        </g>
        <path fill="#F55F44" d="M24.72 272.963a3.217 3.217 0 0 1-1.752-3.889 1.557 1.557 0 0 0-.188-1.342 1.611 1.611 0 0 0-2.641-.086c-.071.098-.13.204-.176.315a3.215 3.215 0 0 1-3.889 1.752 1.568 1.568 0 0 0-.359-.07 1.616 1.616 0 0 0-1.615 1.051 1.611 1.611 0 0 0 .547 1.848c.098.071.204.13.315.175a3.217 3.217 0 0 1 1.752 3.89 1.557 1.557 0 0 0 .187 1.341 1.611 1.611 0 0 0 2.642.086c.07-.098.13-.204.175-.316a3.214 3.214 0 0 1 3.889-1.75c.117.036.237.06.36.07a1.616 1.616 0 0 0 1.615-1.052 1.611 1.611 0 0 0-.547-1.848 1.48 1.48 0 0 0-.316-.175z" opacity=".5"/>
        <path fill="#665EFF" d="M430.72 422.963a3.214 3.214 0 0 1-1.753-3.888 1.53 1.53 0 0 0 .07-.36 1.61 1.61 0 0 0-2.066-1.65 1.616 1.616 0 0 0-.833.582c-.07.098-.129.204-.175.315a3.217 3.217 0 0 1-3.889 1.752 1.511 1.511 0 0 0-.359-.07 1.614 1.614 0 0 0-1.616 1.05 1.61 1.61 0 0 0 .547 1.849c.098.07.204.129.316.175a3.217 3.217 0 0 1 1.751 3.889c-.037.116-.06.237-.07.359-.022.347.068.69.258.982a1.604 1.604 0 0 0 1.808.667c.333-.1.626-.302.834-.58.07-.098.13-.204.175-.316a3.213 3.213 0 0 1 3.889-1.751c.116.037.237.06.36.07a1.61 1.61 0 0 0 1.615-1.051 1.616 1.616 0 0 0-.548-1.848 1.52 1.52 0 0 0-.315-.176z" opacity=".5"/>
        <path fill="#F55F44" d="M328.131 44.262a3.213 3.213 0 0 1-1.751-3.889c.037-.116.061-.237.07-.359a1.61 1.61 0 0 0-2.066-1.649 1.611 1.611 0 0 0-.833.58 1.53 1.53 0 0 0-.176.316 3.213 3.213 0 0 1-3.888 1.752 1.56 1.56 0 0 0-.36-.07 1.611 1.611 0 0 0-1.068 2.899c.098.07.204.129.315.175a3.215 3.215 0 0 1 1.752 3.889 1.516 1.516 0 0 0-.07.359 1.617 1.617 0 0 0 1.051 1.616 1.612 1.612 0 0 0 1.848-.547c.07-.099.129-.204.175-.316a3.216 3.216 0 0 1 3.889-1.752c.117.038.237.061.359.07a1.614 1.614 0 0 0 1.616-1.05 1.61 1.61 0 0 0-.547-1.849 1.552 1.552 0 0 0-.316-.175zM183.72 35.963a3.215 3.215 0 0 1-1.753-3.889c.038-.116.061-.237.07-.359a1.61 1.61 0 0 0-2.066-1.649 1.61 1.61 0 0 0-.833.58c-.07.099-.129.205-.175.316a3.212 3.212 0 0 1-3.889 1.752 1.542 1.542 0 0 0-.359-.07 1.61 1.61 0 0 0-1.649 2.066c.1.333.302.625.581.833.097.07.203.13.315.175a3.215 3.215 0 0 1 1.752 3.889 1.57 1.57 0 0 0-.07.359 1.61 1.61 0 0 0 2.065 1.649c.333-.099.626-.302.834-.58.07-.098.13-.204.175-.316a3.213 3.213 0 0 1 3.89-1.751c.115.037.236.06.358.07a1.611 1.611 0 0 0 1.068-2.9 1.535 1.535 0 0 0-.315-.175zM453.72 218.963a3.214 3.214 0 0 1-1.753-3.889c.037-.116.061-.237.07-.359a1.614 1.614 0 0 0-2.899-1.068 1.542 1.542 0 0 0-.175.315 3.217 3.217 0 0 1-3.889 1.752 1.521 1.521 0 0 0-.359-.07 1.612 1.612 0 0 0-1.069 2.899c.098.07.204.129.316.175a3.212 3.212 0 0 1 1.751 3.889 1.563 1.563 0 0 0-.07.359 1.614 1.614 0 0 0 1.051 1.616 1.61 1.61 0 0 0 1.848-.548c.071-.097.13-.203.176-.315a3.214 3.214 0 0 1 3.888-1.752c.117.038.237.061.36.071a1.611 1.611 0 0 0 1.068-2.9 1.591 1.591 0 0 0-.315-.175z" opacity=".5"/>
        <g transform="translate(83 88)">
            <g fill-rule="nonzero">
                <use fill="#000" filter="url(#a)" xlink:href="#b"/>
                <use fill="#FEFEFE" xlink:href="#b"/>
            </g>
            <g transform="translate(82 64)">
                <circle cx="75" cy="75" r="75" fill="#F6F6FC" fill-rule="nonzero" stroke="#DCDEE2" stroke-width="1.6"/>
                <g fill="#292F42" fill-opacity=".5">
                    <path fill-rule="nonzero" d="M59.387 72.161c-10.174 0-18.452 8.278-18.452 18.452 0 10.174 8.278 18.452 18.452 18.452 10.174 0 18.452-8.278 18.452-18.452 0-10.174-8.278-18.452-18.452-18.452zm0 34.065c-8.608 0-15.613-7.005-15.613-15.613S50.78 75 59.387 75 75 82.005 75 90.613s-7.005 15.613-15.613 15.613z"/>
                    <path d="M59.387 89.194a2.842 2.842 0 0 1-2.839-2.84 2.842 2.842 0 0 1 2.84-2.838 2.842 2.842 0 0 1 2.838 2.839h2.839c0-2.639-1.817-4.842-4.259-5.476v-3.04h-2.838v3.04c-2.442.634-4.258 2.837-4.258 5.476a5.683 5.683 0 0 0 5.677 5.677 2.842 2.842 0 0 1 2.839 2.839 2.842 2.842 0 0 1-2.839 2.839 2.842 2.842 0 0 1-2.839-2.839H53.71c0 2.639 1.816 4.841 4.258 5.476v3.04h2.838v-3.04c2.442-.635 4.259-2.837 4.259-5.476a5.683 5.683 0 0 0-5.678-5.677z"/>
                    <path fill-rule="nonzero" d="M102.771 54.716l6.217-7.253a6.215 6.215 0 0 0 1.496-4.042v-.531a6.22 6.22 0 0 0-6.213-6.213 6.18 6.18 0 0 0-4.85 2.332l-3.375 4.219a1.458 1.458 0 0 1-2.594-.91v-5.64A5.683 5.683 0 0 0 87.774 31a5.683 5.683 0 0 0-5.677 5.677v5.64a1.457 1.457 0 0 1-2.593.91l-3.376-4.219a6.19 6.19 0 0 0-4.851-2.33 6.22 6.22 0 0 0-6.212 6.212v.53c0 1.481.53 2.918 1.496 4.043l6.21 7.247a31.505 31.505 0 0 0-9.068 7.517h-9.675l-1.337 5.23a24.055 24.055 0 0 0-4.943 2.046l-4.642-2.75-7.581 7.58 2.75 4.641a24.015 24.015 0 0 0-2.048 4.941L31 85.253v10.72l5.229 1.338a23.872 23.872 0 0 0 2.048 4.94l-2.752 4.643 7.58 7.581 4.643-2.75a23.976 23.976 0 0 0 4.943 2.046L54.028 119h10.72l1.337-5.229a24.055 24.055 0 0 0 4.942-2.047l4.643 2.751 2.641-2.641c3.05.97 6.226 1.489 9.463 1.489 17.218 0 31.226-14.008 31.226-31.226 0-11.385-6.318-21.932-16.229-27.381zm-34.056-9.1a3.383 3.383 0 0 1-.812-2.195v-.531a3.377 3.377 0 0 1 3.374-3.374c1.03 0 1.99.461 2.634 1.268l3.376 4.218a4.278 4.278 0 0 0 3.354 1.61 4.299 4.299 0 0 0 4.294-4.294v-5.64a2.842 2.842 0 0 1 2.84-2.84 2.842 2.842 0 0 1 2.838 2.84v5.64a4.299 4.299 0 0 0 4.295 4.295c1.31 0 2.533-.588 3.354-1.612l3.375-4.219a3.358 3.358 0 0 1 2.634-1.266 3.377 3.377 0 0 1 3.374 3.374v.53c0 .804-.288 1.583-.812 2.197l-6.938 8.093H75.653l-6.938-8.093zm11.3 50.179a21.062 21.062 0 0 1-2.378 5.737l-.436.727 2.483 4.187-4.464 4.465-4.187-2.482-.725.435a21.254 21.254 0 0 1-5.739 2.378l-.82.206-1.205 4.713h-6.312l-1.205-4.715-.82-.206a21.19 21.19 0 0 1-5.739-2.377l-.725-.436-4.187 2.483-4.466-4.464 2.483-4.187-.436-.727a21.107 21.107 0 0 1-2.377-5.737l-.206-.82-4.715-1.205v-6.312l4.715-1.207.206-.82a21.062 21.062 0 0 1 2.377-5.737l.436-.727-2.483-4.187 4.464-4.465 4.187 2.482.726-.436a21.235 21.235 0 0 1 5.738-2.377l.82-.206 1.205-4.713h6.312l1.205 4.715.82.205a21.19 21.19 0 0 1 5.74 2.378l.724.436 4.188-2.483 4.463 4.465L77.2 78.97l.436.726a21.107 21.107 0 0 1 2.377 5.737l.206.82 4.716 1.204v6.312l-4.715 1.207-.205.82zm7.76 14.689c-2.448 0-4.858-.31-7.194-.92l2.668-2.668-2.75-4.644a24.015 24.015 0 0 0 2.048-4.941l5.227-1.339v-10.72l-5.229-1.337a23.872 23.872 0 0 0-2.048-4.94l2.752-4.644-7.58-7.58-4.643 2.75a23.976 23.976 0 0 0-4.942-2.046l-.785-3.072.179.14a28.636 28.636 0 0 1 9.924-7.975h24.745c9.734 4.725 16.014 14.725 16.014 25.549 0 15.652-12.734 28.387-28.387 28.387z"/>
                    <path d="M69.323 89.194h2.839v2.839h-2.839zM46.613 89.194h2.839v2.839h-2.839z"/>
                </g>
            </g>
            <rect width="187" height="14" x="64" y="230" fill="#DCDEE2" fill-rule="nonzero" rx="7"/>
            <rect width="90" height="14" x="112" y="252" fill="#DCDEE2" fill-rule="nonzero" rx="7"/>
            <g fill-rule="nonzero">
                <path fill="#F6F6FC" d="M5 0h304a5 5 0 0 1 5 5v27H0V5a5 5 0 0 1 5-5z"/>
                <g transform="translate(16 11)">
                    <circle cx="5" cy="5" r="5" fill="#F17272"/>
                    <circle cx="23" cy="5" r="5" fill="#FFCA00"/>
                    <circle cx="41" cy="5" r="5" fill="#86BE26"/>
                </g>
            </g>
        </g>
    </g>
</svg>
