<svg xmlns="http://www.w3.org/2000/svg" width="474" height="478" viewBox="0 0 474 478">
    <defs>
        <linearGradient id="a" x1="50.002%" x2="50.002%" y1="100%" y2="-.003%">
            <stop offset="0%" stop-color="gray" stop-opacity=".25"/>
            <stop offset="54%" stop-color="gray" stop-opacity=".12"/>
            <stop offset="100%" stop-color="gray" stop-opacity=".1"/>
        </linearGradient>
    </defs>
    <g fill="none" fill-rule="evenodd">
        <path stroke="#C4E58B" stroke-dasharray="5" stroke-width="1.6" d="M236.961 477.095c130.366 0 236.048-106.577 236.048-238.048C473.009 107.577 367.327 1 236.961 1 106.596 1 .914 107.577.914 239.047s105.682 238.048 236.047 238.048z" opacity=".4"/>
        <path stroke="#C4E58B" stroke-dasharray="5" stroke-width="1.6" d="M236.962 417.039c99.407 0 179.992-80.586 179.992-179.992 0-99.407-80.585-179.992-179.992-179.992-99.406 0-179.991 80.585-179.991 179.992 0 99.406 80.585 179.992 179.991 179.992z" opacity=".4"/>
        <path fill="#FFF" d="M326.905 173.107c-3.924.429-3.259 6.526.665 6.132 3.924-.394 3.258-6.517-.665-6.132z"/>
        <path fill="#FAFAFA" d="M352.043 241.769c-3.924.43-3.258 6.526.666 6.132 3.924-.394 3.258-6.561-.666-6.132zM343.161 289.441c-3.924.43-3.258 6.527.666 6.132 3.923-.394 3.267-6.561-.666-6.132zM366.592 350.314c-3.924.43-3.259 6.526.665 6.132 3.924-.394 3.25-6.561-.665-6.132zM422.865 349.44c-3.924.429-3.258 6.526.666 6.132 3.924-.395 3.267-6.57-.666-6.132z"/>
        <path fill="#FFF" d="M416.761 173.004c-3.924.429-3.258 6.524.666 6.13 3.924-.394 3.258-6.559-.666-6.13zM457.198 164.166c-3.924.429-3.258 6.525.666 6.131 3.924-.394 3.267-6.56-.666-6.131z"/>
        <path fill="#FAFAFA" d="M382.007 193.551c-5.045.552-4.195 8.39.876 7.839 5.071-.552 4.169-8.391-.876-7.839zM432.281 274.392c-5.045.552-4.195 8.391.876 7.839 5.071-.552 4.16-8.4-.876-7.839zM356.08 399.485c-5.605.613-4.659 9.319.955 8.706 5.615-.613 4.677-9.328-.955-8.706zM328.271 193.713c-5.605.613-4.659 9.32.955 8.707 5.614-.613 4.66-9.321-.955-8.707z"/>
        <path fill="#FFF" d="M205.428 59.937c3.828.964 2.33 6.911-1.498 5.948-3.827-.964-2.347-6.911 1.498-5.948z"/>
        <path fill="#FAFAFA" d="M171.095 124.453c3.827.963 2.33 6.91-1.498 5.947-3.827-.964-2.33-6.911 1.498-5.947zM173.347 172.89c3.827.964 2.33 6.91-1.498 5.946-3.827-.963-2.33-6.909 1.498-5.946zM141.8 229.978c3.827.963 2.33 6.911-1.498 5.947-3.828-.963-2.312-6.919 1.498-5.947zM86.163 221.376c3.827.964 2.33 6.911-1.498 5.948-3.827-.964-2.338-6.92 1.498-5.948z"/>
        <path fill="#FFF" d="M116.433 47.447c3.827.963 2.329 6.91-1.498 5.947-3.828-.964-2.347-6.91 1.498-5.947zM77.553 33.146c3.827.964 2.329 6.912-1.498 5.948-3.828-.964-2.304-6.911 1.498-5.948z"/>
        <path fill="#FAFAFA" d="M148.033 72.574c4.923 1.235 3.005 8.88-1.927 7.646-4.931-1.235-2.995-8.89 1.927-7.646zM87.186 145.751c4.923 1.235 3.005 8.882-1.927 7.647-4.931-1.235-3.039-8.89 1.927-7.647zM145.424 280.117c5.465 1.375 3.337 9.871-2.137 8.496s-3.337-9.871 2.137-8.496zM201.235 80.11c5.466 1.376 3.337 9.872-2.137 8.497s-3.302-9.871 2.137-8.496z"/>
        <g fill="#3AD29F" opacity=".5">
            <path d="M78.43 353.535h-2.628v14.889h2.628z"/>
            <path d="M84.562 362.295v-2.627h-14.89v2.627z"/>
        </g>
        <path fill="#F55F44" d="M24.72 272.963a3.217 3.217 0 0 1-1.752-3.889 1.557 1.557 0 0 0-.188-1.342 1.611 1.611 0 0 0-2.641-.086c-.071.098-.13.204-.176.315a3.215 3.215 0 0 1-3.889 1.752 1.568 1.568 0 0 0-.359-.07 1.616 1.616 0 0 0-1.615 1.051 1.611 1.611 0 0 0 .547 1.848c.098.071.204.13.315.175a3.217 3.217 0 0 1 1.752 3.89 1.557 1.557 0 0 0 .187 1.341 1.611 1.611 0 0 0 2.642.086c.07-.098.13-.204.175-.316a3.214 3.214 0 0 1 3.889-1.75c.117.036.237.06.36.07a1.616 1.616 0 0 0 1.615-1.052 1.611 1.611 0 0 0-.547-1.848 1.48 1.48 0 0 0-.316-.175z" opacity=".5"/>
        <path fill="#665EFF" d="M430.72 422.963a3.214 3.214 0 0 1-1.753-3.888 1.53 1.53 0 0 0 .07-.36 1.61 1.61 0 0 0-2.066-1.65 1.616 1.616 0 0 0-.833.582c-.07.098-.129.204-.175.315a3.217 3.217 0 0 1-3.889 1.752 1.511 1.511 0 0 0-.359-.07 1.614 1.614 0 0 0-1.616 1.05 1.61 1.61 0 0 0 .547 1.849c.098.07.204.129.316.175a3.217 3.217 0 0 1 1.751 3.889c-.037.116-.06.237-.07.359-.022.347.068.69.258.982a1.604 1.604 0 0 0 1.808.667c.333-.1.626-.302.834-.58.07-.098.13-.204.175-.316a3.213 3.213 0 0 1 3.889-1.751c.116.037.237.06.36.07a1.61 1.61 0 0 0 1.615-1.051 1.616 1.616 0 0 0-.548-1.848 1.52 1.52 0 0 0-.315-.176z" opacity=".5"/>
        <path fill="#F55F44" d="M328.131 44.262a3.213 3.213 0 0 1-1.751-3.889c.037-.116.061-.237.07-.359a1.61 1.61 0 0 0-2.066-1.649 1.611 1.611 0 0 0-.833.58 1.53 1.53 0 0 0-.176.316 3.213 3.213 0 0 1-3.888 1.752 1.56 1.56 0 0 0-.36-.07 1.611 1.611 0 0 0-1.068 2.899c.098.07.204.129.315.175a3.215 3.215 0 0 1 1.752 3.889 1.516 1.516 0 0 0-.07.359 1.617 1.617 0 0 0 1.051 1.616 1.612 1.612 0 0 0 1.848-.547c.07-.099.129-.204.175-.316a3.216 3.216 0 0 1 3.889-1.752c.117.038.237.061.359.07a1.614 1.614 0 0 0 1.616-1.05 1.61 1.61 0 0 0-.547-1.849 1.552 1.552 0 0 0-.316-.175zM183.72 35.963a3.215 3.215 0 0 1-1.753-3.889c.038-.116.061-.237.07-.359a1.61 1.61 0 0 0-2.066-1.649 1.61 1.61 0 0 0-.833.58c-.07.099-.129.205-.175.316a3.212 3.212 0 0 1-3.889 1.752 1.542 1.542 0 0 0-.359-.07 1.61 1.61 0 0 0-1.649 2.066c.1.333.302.625.581.833.097.07.203.13.315.175a3.215 3.215 0 0 1 1.752 3.889 1.57 1.57 0 0 0-.07.359 1.61 1.61 0 0 0 2.065 1.649c.333-.099.626-.302.834-.58.07-.098.13-.204.175-.316a3.213 3.213 0 0 1 3.89-1.751c.115.037.236.06.358.07a1.611 1.611 0 0 0 1.068-2.9 1.535 1.535 0 0 0-.315-.175zM453.72 218.963a3.214 3.214 0 0 1-1.753-3.889c.037-.116.061-.237.07-.359a1.614 1.614 0 0 0-2.899-1.068 1.542 1.542 0 0 0-.175.315 3.217 3.217 0 0 1-3.889 1.752 1.521 1.521 0 0 0-.359-.07 1.612 1.612 0 0 0-1.069 2.899c.098.07.204.129.316.175a3.212 3.212 0 0 1 1.751 3.889 1.563 1.563 0 0 0-.07.359 1.614 1.614 0 0 0 1.051 1.616 1.61 1.61 0 0 0 1.848-.548c.071-.097.13-.203.176-.315a3.214 3.214 0 0 1 3.888-1.752c.117.038.237.061.36.071a1.611 1.611 0 0 0 1.068-2.9 1.591 1.591 0 0 0-.315-.175z" opacity=".5"/>
        <g>
            <g transform="translate(189 80)">
                <path fill="url(#a)" fill-rule="nonzero" d="M114.923 83.892s-3.769-7.432-3.26-9.642c.509-2.21-2.651-6.928-2.651-6.928l.204-7.829s-.436.8-2.71 1.501c-.193-.252-.401-.5-.618-.736a16.145 16.145 0 0 0-2.73-2.278l-4.005-8.637-3.873-5.928S89.173 31.007 82.866 28.27l-.993-1.942a.152.152 0 0 0 .06-.196l-1.01-1.973a.156.156 0 0 0-.195-.072l-.965-1.89a15.17 15.17 0 0 0-2.804-6.76c-.1-.14-.208-.268-.312-.4l1.57-.056c1.377-.052 2.915-.172 3.84-1.2a3.51 3.51 0 0 0 .717-1.321 5.6 5.6 0 0 0 .232-1.173v-.176-.4-.32-.257c0-.084-.044-.276-.068-.4 0-.052 0-.104-.032-.156a4.665 4.665 0 0 0-.124-.464.62.62 0 0 1-.028-.092 6.875 6.875 0 0 0-.212-.54 6.136 6.136 0 0 0-.237-.457l-.024-.048a1.6 1.6 0 0 0-.1-.18c-1.085-1.705-2.991-2.702-4.805-3.602a55.553 55.553 0 0 0-5.206-2.402 28.046 28.046 0 0 0-20.423.288 8.087 8.087 0 0 0-1.819.969 9.391 9.391 0 0 0-1.982 2.33l-3.103 4.582a6.475 6.475 0 0 0-1.005 1.85c-.581 2.177 1.24 4.358 1.037 6.603-.104 1.117-.705 2.142-.821 3.259-.148 1.44.52 2.83 1.173 4.13l4.441 8.806a85.926 85.926 0 0 1-.78 3.486c-2.047 2.113-2.736 3.266-2.924 3.89l-.06.032a3.603 3.603 0 0 0-1.025 1l-4.221 4.1s-7.336 1.905-8.862 4.318c0 0-11.513-.504-11.413 15.566 0 0-.509 6.028-.801 6.832-.293.805 0 8.938 0 8.938l-.136 16.474s-.44 8.737 0 11.851c.44 3.114.949 14.966.949 14.966s2.75 11.55 1.734 15.67c-.977 3.942 0 12.563 1.602 12.6.304.628.652.936 1.033.76.165-.072.335-.134.508-.184v9.842s-1.982 13.788.24 16.41c-1.473 2.097-3.203 5.675-3.644 6.616l-15.577-.837-1.983.557-1.818.508L1.39 213.33l.44.032-.032.772 1.042.076-1.45 25.504 21.565 1.773c-.95 2.126-2.05 4.403-2.48 4.623-.8.4-2.546-.8-2.955-.304-.408.496-1.63 1.105-3.055.8-1.426-.304-2.343 1.305-2.343 1.305s.209.185.52.525c-2.314-.28-5.241.96-6.83 1.76-.714.361-1.158.63-1.158.63H.448l2.31 14.732 1.63 1.113.4 11.607s6.52 20.089 9.508 19.957a1.35 1.35 0 0 0 1.005-.504c1.602-1.85.492-8.202.492-8.202v-10.574s2.443-1.073 2.171-1.877c-.272-.805 3.94-9.606 4.317-10.407a.068.068 0 0 0 .032-.064c0-.904 1.834-1.91 1.73-2.31-.104-.4 4.485-2.913 4.805-5.123.32-2.209 3.36-1.004 3.36-1.004l3.869-4.443c.116 5.415.336 9.206.716 10.166 1.835 4.623 2.547 11.856 2.547 11.856s-1.12 5.523 0 7.332c.69 1.105 2.291 2.29 3.404 3.27-1.157 3.507-.993 10.96-.993 10.96v4.282l8.558 2.401s.268-2.14.677-2.14c.408 0 5.842 4.15 5.842 4.15s20.92.268 26.214 0c2.003-.1 2.547-.96 2.239-2.002-.509-1.733-3.364-3.978-5.903-4.15-4.077-.268-9.238-4.551-9.238-4.551s.4-.94-1.766-2.277c-1.498-.921-5.643-4.647-8.206-6.829.12-.164.244-.328.36-.504 0 0-3.463-4.803-2.747-6.932.717-2.13-.308-5.204-.308-5.204s-1.934-5.927-1.934-8.941c0-1.91-.288-12.768-.497-20.469l1.786.148.036-.768.801.072 7.573.696-.232-8.089c3.648-1.6 6.683-3.086 7.94-4.034 4.278-3.202 7.946-3.414 7.946-3.414s8.658-4.62 9.983-6.529c1.326-1.909 1.202-15.77 1.202-15.77l-.713-29.706v-.024s-.609-14.36-1.834-17.475c-.449-1.152-1.558-4.995-2.771-9.382a7.256 7.256 0 0 1 2.09.088 84.15 84.15 0 0 1 .072 2.062c0 1.705 2.443 3.154 2.443 3.154l-1.73-38.424v-26.14c5.334 1.697 18.233 2.225 18.233 2.225 9.294-.488 7.056-8.942 7.056-8.942zM64.609 50.88h-.028c.19-1.008.437-2.003.741-2.982l-.713 2.982zM29.601 182.67c3.16.52 6.808.368 7.084-.244.028-.06.064-.168.112-.309.1.177.197.357.297.54l-.309 5.796v.132l-10.411-.56c.728-3.102 2.106-4.615 3.227-5.355zm34.708 29.242l-.268-9.386c.464-1.729.88-3.298 1.237-4.643.16 1.117.296 2.146.4 3.094.986 8.906-.468 10.643-1.37 10.935zm29.634-140.72c-.597.228-2.867-1.2-5.022-2.681 0-.272.02-.54.032-.8.304-6.129-9.679-9.943-12.734-10.647a10.98 10.98 0 0 1-2.147-.8 50.064 50.064 0 0 1-4.741-2.679l.04-.116s-3.94-2.493-4.025-5.603a53.186 53.186 0 0 1 3.388-8.217c.076-.156.16-.32.24-.477A15.72 15.72 0 0 0 74.1 36.46c.613 8.005 12.202 14.893 12.202 14.893l1.237 2.001.293.473c-.625.368-.925.664-.713.836.881.704 3.011 4.691 3.892 6.376.24.456.4.74.4.74s1.895 5.152 2.98 9.462a.801.801 0 0 0-.456-.048h.008z"/>
                <path fill="#FAB78D" d="M98.42 50.431l-.136.18-.465.62-8.91 6.293-1.89-3.106-1.201-2.001s-17.76-10.647-10.124-20.91c7.637-10.262 18.922 13.009 18.922 13.009l3.804 5.915z"/>
                <path fill="#3A3768" d="M80.295 25.293a.152.152 0 0 1 .205.068l.99 1.966a.152.152 0 0 1-.272.137l-.99-1.967a.152.152 0 0 1 .067-.204zM70.328 28.112l.004-.002a.084.084 0 0 1 .113.037l.295.586a.084.084 0 0 1-.037.113l-.004.002a.084.084 0 0 1-.113-.037l-.295-.587a.084.084 0 0 1 .037-.113zM71.011 29.455a.096.096 0 0 1 .13.043l.56 1.112a.096.096 0 0 1-.172.086l-.56-1.112a.096.096 0 0 1 .042-.129zM71.88 31.188a.092.092 0 0 1 .124.04l.57 1.13c.022.045.004.1-.041.124a.092.092 0 0 1-.124-.041l-.57-1.13a.092.092 0 0 1 .041-.123z"/>
                <path fill="#3A3768" d="M69.909 25.267l7.484-3.767a.896.896 0 0 1 1.203.397l8.492 16.853a.896.896 0 0 1-.397 1.203l-7.484 3.766a.896.896 0 0 1-1.203-.397L69.51 26.47a.896.896 0 0 1 .397-1.203z"/>
                <path fill="#86BE26" d="M76.435 22.57a.36.36 0 0 0-.16.488l.032.068a.364.364 0 0 1-.16.493l-3.853 1.937a.36.36 0 0 1-.489-.16l-.036-.068a.364.364 0 0 0-.488-.164l-.749.38a.689.689 0 0 0-.308.932l8.185 16.239c.175.342.593.48.937.308l6.72-3.382a.7.7 0 0 0 .308-.937l-8.19-16.246a.697.697 0 0 0-.936-.308l-.813.42z"/>
                <path fill="#E6E8EC" d="M73.184 24.31l1.012-.51a.144.144 0 0 1 .13.257l-1.013.51a.144.144 0 1 1-.13-.257z"/>
                <ellipse cx="74.721" cy="23.683" fill="#E6E8EC" rx="1" ry="1"/>
                <path fill="#5F5570" d="M82.201 84.853l-2.502 67.13s8.41-2.802 9.71-.7c1.302 2.1-1.401-33.622-1.401-33.622l-5.807-32.808z"/>
                <path fill="#292F42" d="M82.201 84.853l-2.502 67.13s8.41-2.802 9.71-.7c1.302 2.1-1.401-33.622-1.401-33.622l-5.807-32.808z" opacity=".15"/>
                <path fill="#292F42" d="M82.602 306.123c-5.206.268-25.762 0-25.762 0s-5.342-4.135-5.742-4.135c-.4 0-.665 2.133-.665 2.133l-8.41-2.401v-4.267s-.268-12.147 2.267-12.676c2.535-.528 13.752 0 13.752 0 .4-.132 8.009 7.073 10.143 8.406 2.135 1.332 1.734 2.27 1.734 2.27s5.074 4.266 9.079 4.534c2.495.168 5.302 2.401 5.802 4.134.305 1.045-.236 1.902-2.198 2.002z"/>
                <path fill="#000" d="M82.602 306.123c-5.206.268-25.762 0-25.762 0s-5.342-4.135-5.742-4.135c-.4 0-.665 2.133-.665 2.133l-8.41-2.401v-4.183l7.873 2.85 6.276 3.734H84.8c.305 1.045-.236 1.902-2.198 2.002z" opacity=".1"/>
                <path fill="#000" stroke="#000" stroke-width=".5" d="M59.227 299.855s6.407-6.136 10.692-4.403" opacity=".1"/>
                <path fill="#292F42" d="M18.66 277.305c.27.8-2.134 1.869-2.134 1.869v10.539s1.09 6.327-.484 8.173c-.24.303-.6.485-.985.5-2.936.132-9.343-19.88-9.343-19.88l-.4-11.564-1.602-1.108-2.27-14.678h4.14s.436-.268 1.137-.628c2.002-1.02 6.195-2.802 8.474-1.105l7.74 17.431s-4.537 9.65-4.272 10.45z"/>
                <path fill="#000" d="M16.042 297.886c-.24.303-.6.485-.985.5-2.936.132-9.343-19.88-9.343-19.88l-.4-11.564-1.602-1.108-2.27-14.678h4.14s.436-.268 1.137-.628l.997 15.037.533 12.94s5.03 14.09 7.793 19.38z" opacity=".1"/>
                <path fill="#7C818C" d="M90.31 222.639c-1.3 1.9-9.81 6.504-9.81 6.504s-3.605.2-7.81 3.402c-2.174 1.657-9.73 4.943-16.518 7.733-6.34 2.605-12.014 4.775-12.014 4.775l-6.536 7.604-4.977 5.792s-3.004-1.2-3.304 1c-.3 2.202-4.806 4.704-4.705 5.104.1.4-1.702 1.4-1.702 2.301 0 .9-6.708-6.504-6.608-11.007.1-4.502-3.404-7.604-3.404-7.604s.901-1.601 2.303-1.301c1.401.3 2.603-.3 3.003-.8.4-.501 2.103.7 2.904.3.8-.4 4.004-8.306 4.004-8.306l12.482-8.369 24.829-16.634 1.145-.769s3.304 1.513 1.962-10.882c-.26-2.402-.696-5.32-1.361-8.874-4.105-21.914 10.612-24.415 10.612-24.415l12.915 4.302 3.103 4.803v.024l.701 29.595s.088 13.82-1.213 15.722z"/>
                <path fill="#000" d="M56.072 236.647l.1 3.63c-6.34 2.606-12.014 4.776-12.014 4.776l-6.536 7.604c-.108-6.304-.084-14.493 0-22.886l24.829-16.634c-3.072 11.379-6.38 23.51-6.38 23.51zM90.811 177.31v.024l-19.422.377s-3.404 13.308-3.904 16.11c-.125.688-.877 3.63-1.943 7.673-.26-2.402-.696-5.32-1.361-8.874-4.105-21.914 10.612-24.415 10.612-24.415l12.915 4.302 3.103 4.803z" opacity=".1"/>
                <path fill="#7C818C" d="M39.653 140.988l-2.503 48.03s-1.802 70.544 0 75.147c1.802 4.602 2.503 11.807 2.503 11.807s-1.102 5.503 0 7.304c1.101 1.802 4.605 3.803 4.505 4.803-.1 1.001 10.712 6.404 16.319-2.2 0 0-3.404-4.804-2.704-6.905.701-2.101-.3-5.203-.3-5.203s-1.902-5.904-1.902-8.918c0-3.014-.7-28.218-.7-28.218s10.912-40.025 11.412-42.826c.5-2.802 3.905-16.11 3.905-16.11l20.623-.4s-.6-14.31-1.802-17.411c-1.201-3.102-7.108-25.816-7.108-25.816l-42.248 6.916z"/>
                <path fill="#7B728F" d="M5.233 188.073l-1.79.512-.072 1.77 53.67.692v-.696z"/>
                <path fill="#FAB78D" d="M68.538 40.773c-7.81 15.83-2.96 19.14-2.187 19.549-1.654-.769-23.15-10.863-20.323-13.425 1.838-1.669 3.412-8.93 4.337-14.133.549-3.106.869-5.479.869-5.479l22.558 4.135c-2.187 3.522-3.925 6.624-5.254 9.353z"/>
                <path fill="#000" d="M98.3 50.612l-.465.62-8.926 6.292-1.89-3.106c2.751-1.601 11-4.403 11-4.403l.28.597z" opacity=".1"/>
                <path fill="#E5E8EF" d="M106.53 65.04c-.802 2.802-14.317 0-14.317 0l-1.402-2.2s-.14-.281-.376-.737c-.865-1.677-2.96-5.648-3.825-6.352-1.1-.9 11.814-5.304 11.814-5.304l3.956 8.606a15.944 15.944 0 0 1 2.684 2.27c1 1.084 1.83 2.44 1.465 3.718z"/>
                <path fill="#848A96" d="M84.104 66.33s8.009 6.315 9.21 5.859c1.201-.456 20.624 12.652 20.624 12.652s2.202 8.405-6.908 8.905c0 0-19.322-.8-20.123-3.602-.801-2.802-2.803-23.815-2.803-23.815z"/>
                <path fill="#000" d="M62.279 53.633l-8.71 9.006 12.214 77.648 4.805-2.801s12.414 5.503 13.415.4c1.002-5.103.725-25.216.725-25.216l-1.626-36.334s-5.706-12.708-5.706-13.109c0-.4-8.23-6.604-8.23-6.604l-3.884-3.002-3.003.012z" opacity=".1"/>
                <path fill="#E5E8EF" d="M62.279 52.433l-8.71 9.005 12.214 77.649 4.805-2.802s12.414 5.503 13.415.4c1.002-5.103.725-25.216.725-25.216l-1.626-36.334s-5.706-12.708-5.706-13.108c0-.4-8.23-6.604-8.23-6.604l-3.884-3.002-3.003.012z"/>
                <path fill="#000" d="M62.78 53.733l-2.404 4.904 2.403 2.533s8.61 17.379 6.908 27.685l1.802 33.921 5.807 5.704 4.605-5.315-2.202-30.82s-5.907-25.415-12.114-33.32l-1.802-7.005-3.004 1.713z" opacity=".1"/>
                <path fill="#BC8487" d="M62.78 52.933l-2.404 4.903 2.403 2.534s8.61 17.378 6.908 27.685l1.802 33.921 5.807 5.704 4.605-5.316-2.202-30.819s-5.907-25.416-12.114-33.32l-1.802-7.005-3.004 1.713z"/>
                <path fill="#000" d="M70.869 34.023c-1.92 4.157-3.43 7.817-4.611 11.039a10.343 10.343 0 0 1-3.831.741c-4.345 0-6.847-4.038-9.307-8.327-.563-.973-2.411-.747-2.812-1.89.481-3.665.763-6.466.763-6.466l19.798 4.903z" opacity=".1"/>
                <path fill="#FAB78D" d="M78.388 27.335c0 8.374-5.292 15.503-12.476 16.81-7.184 1.307-14.126-3.597-16.369-11.563-2.242-7.966.881-16.627 7.365-20.421 6.484-3.794 14.401-1.594 18.668 5.187 1.828 2.905 2.812 6.4 2.812 9.987z"/>
                <path fill="#000" d="M59.275 59.837l-12.614-15.21s-1.166-.467 2.77-4.586c0 0 14.457 11.263 15.354 13.176.897 1.913-5.51 6.62-5.51 6.62z" opacity=".1"/>
                <path fill="#E5E8EF" d="M58.875 59.037L46.26 43.827s-1.165-.468 2.771-4.587c0 0 14.457 11.263 15.354 13.177.897 1.913-5.51 6.62-5.51 6.62z"/>
                <path fill="#848A96" d="M90.811 155.837s-2.403-1.44-2.403-3.142c0-1.7-1.2-25.716-1.2-25.716s-1.763-14.333-3.605-25.724c-1.081-6.712-2.19-12.408-2.975-13.536l-.032-.048c-2.103-2.702-1.702-15.91-14.817-35.222.176.12 4.697 3.29 8.009 4.883.674.338 1.381.607 2.11.8 3.004.7 12.815 4.503 12.514 10.607-.3 6.104.701 20.112.701 20.112v28.71l1.698 38.276z"/>
                <path fill="#000" d="M106.53 65.04c-.802 2.802-14.317 0-14.317 0l-1.402-2.2s-.14-.281-.376-.737a.268.268 0 0 1-.02-.048c7.853.548 12.23-.024 14.649-.733 1 1.085 1.83 2.442 1.465 3.719z" opacity=".1"/>
                <path fill="#848A96" d="M90.811 62.84s4.205 11.606 3.604 14.508c-.6 2.902 9.711 14.31 9.711 14.31l9.812-6.805s-3.705-7.405-3.204-9.606c.5-2.201-2.603-6.904-2.603-6.904l.2-7.797s-1.802 3.382-17.52 2.293z"/>
                <path fill="#000" d="M76.603 16.654l-7.609.289a8.478 8.478 0 0 0-2.202.276c-2.72.836-3.973 3.726-4.073 6.324-.1 2.597-1.602 5.507-4.513 5.735-.29.05-.587-.017-.829-.184a1.369 1.369 0 0 1-.352-.708 15.486 15.486 0 0 0-1.915-4.275c-1.201.216-2.09 1.357-2.402 2.55-.313 1.192-.229 2.45-.225 3.686a23.847 23.847 0 0 1-.452 4.679 15.335 15.335 0 0 1-1.976-15.342 15.353 15.353 0 0 1 26.56-3.03h-.012z" opacity=".1"/>
                <path fill="#292F42" d="M66.395 16.818a8.478 8.478 0 0 1 2.203-.276l9.238-.344c1.354-.052 2.864-.172 3.773-1.177.326-.383.566-.832.705-1.316a5.681 5.681 0 0 0-.597-4.655c-1.07-1.701-2.944-2.69-4.73-3.603a54.968 54.968 0 0 0-5.113-2.401 27.244 27.244 0 0 0-20.063.288 8.099 8.099 0 0 0-1.786.957 9.227 9.227 0 0 0-1.947 2.321l-3.04 4.579a6.303 6.303 0 0 0-.956 1.85c-.573 2.172 1.201 4.346 1.017 6.583-.104 1.113-.693 2.134-.8 3.246-.145 1.437.512 2.802 1.156 4.11l5.342 10.772c.863-2.512 1.3-5.15 1.294-7.805 0-1.237-.104-2.494.224-3.687.329-1.192 1.202-2.333 2.403-2.55.853 1.32 1.5 2.761 1.918 4.275.044.266.167.513.353.709.241.167.539.234.829.184 2.927-.228 4.405-3.11 4.513-5.736.108-2.625 1.345-5.487 4.064-6.324z"/>
                <path fill="#7B728F" d="M3.443 188.585l3.74-1.068 56.397 3.07-6.207.8z"/>
                <path fill="#292F42" d="M3.443 188.585l3.74-1.068 56.397 3.07-6.207.8z"/>
                <path fill="#292F42" d="M65.114 244.62l-7.44-.692-2.612-.24v-41.362l.69-9.602.151-2.137h7.677z"/>
                <path fill="#292F42" d="M63.08 243.151l-5.935-.656-2.083-.228V203.05l.549-9.102.12-2.03h6.123z" opacity=".1"/>
                <path fill="#7B728F" d="M22.381 188.585s3.704-8.12 5.258-8.373c1.554-.252 4.405 0 4.405 0l-.252 2.354s-3.805.3-5.006 6.652l-4.405-.633z"/>
                <path fill="#292F42" d="M22.381 188.585s3.704-8.12 5.258-8.373c1.554-.252 4.405 0 4.405 0l-.252 2.354s-3.805.3-5.006 6.652l-4.405-.633zM36.75 179.364s9.959 4.95 8.657 10.754l-5.406-.3s-2.603-8.653-4.653-9.105c-2.05-.453 1.401-1.35 1.401-1.35z"/>
                <path fill="#848A96" d="M73.792 100.963v.292l-.2 33.329s-5.106 28.017-6.508 29.118c-1.402 1.1-32.137-1.901-32.137-1.901L21.031 68.042c-.1-16.01 11.213-15.51 11.213-15.51 1.502-2.4 8.71-4.302 8.71-4.302l4.005-3.902.128-.18a3.56 3.56 0 0 1 1.01-.997c.824-.476 1.349.152 1.649.772.135.292.24.596.312.909 16.223 11.891 25.734 56.13 25.734 56.13z"/>
                <path fill="#000" d="M73.391 101.363v.292c-5.033-9.205-24.428-44.083-29.734-45.82l2.043-1.401s1.361-.8-1.142-1.601c0 0-3.904.5-4.004-4.203l4.132-4.082 1.01-.997 1.65.773c.135.29.24.595.312.908C63.88 57.124 73.39 101.363 73.39 101.363z" opacity=".1"/>
                <path fill="#636B7C" d="M73.792 100.963v.292c-5.034-9.206-24.428-44.083-29.734-45.82l2.042-1.401s1.362-.8-1.141-1.601c0 0-3.905.5-4.005-4.203l4.133-4.082 1.01-.997 1.649.772c.135.292.24.596.312.909 16.223 11.891 25.734 56.13 25.734 56.13z"/>
                <path fill="#000" d="M81.032 88.103L81 88.055c-2.102-2.702-1.702-15.91-14.817-35.222.176.12 4.697 3.29 8.01 4.883l-.926 3.05 2.002 1.069 5.763 26.268z" opacity=".1"/>
                <path fill="#636B7C" d="M80.632 87.703l-.032-.048c-2.103-2.702-1.702-15.91-14.817-35.222.176.12 4.697 3.29 8.009 4.883l-.925 3.05 2.002 1.068 5.763 26.269z"/>
                <path fill="#000" d="M65.206 49.35l-.821 3.467s.6 3.47 4.2 3.77l.581-1.653s-3.884-2.49-3.96-5.583z" opacity=".1"/>
                <path fill="#E5E8EF" d="M65.206 48.95l-.821 3.467s.6 3.47 4.2 3.77l.581-1.653s-3.884-2.49-3.96-5.584z"/>
                <path fill="#000" d="M60.028 191.147l-2.355 52.781-2.61-.24v-41.362l.688-9.602z" opacity=".1"/>
                <path fill="#292F42" d="M3.98 211.532l-1.602 28.55 54.462 4.538 2.387-53.473z"/>
                <path fill="#000" d="M2.779 214.602l1.065-25.216 55.784 2.562-2.655 26.656z" opacity=".1"/>
                <path fill="#292F42" d="M2.378 213.801l1.065-25.216 55.784 2.562-2.655 26.657z"/>
                <path fill="#C3BBC8" d="M25.837 213.833h6.708v7.805h-6.708z"/>
                <path fill="#F9B68C" d="M26.838 162.701l-1.001 2.702s-2.102 14.81.5 16.61c2.604 1.802 10.312 1.902 10.713 1.001.4-.9 3.203-11.107 3.203-11.107s2.503 7.505 3.805 6.904c1.301-.6-3.004-14.865-3.004-14.865l-14.216-1.245z"/>
                <path fill="#000" d="M25.837 151.494v14.31s10.612 2 15.217-1.458c0 0-4.305-13.852-2.703-17.354 1.602-3.503-12.514 4.502-12.514 4.502z" opacity=".1"/>
                <path fill="#E5E8EF" d="M25.837 151.094v14.31s10.612 2 15.217-1.458c0 0-4.305-13.852-2.703-17.355 1.602-3.502-12.514 4.503-12.514 4.503z"/>
                <path fill="#000" d="M24.636 67.342l-2.804 1.5s-.5 6.005-.8 6.805c-.3.8 0 8.906 0 8.906l-.137 16.41s-.432 8.705 0 11.807c.433 3.102.917 14.91.917 14.91s2.707 11.507 1.706 15.61c-1 4.102.1 13.308 1.802 12.507 1.702-.8 17.42-3.902 18.221-4.503.801-.6.4-6.204 0-6.904-.4-.7-2.803-10.206-2.603-12.408.2-2.201-.7-21.513-.7-21.513s1.501-20.613 2.102-25.416c.6-4.803-1.202-18.912-2.803-19.112-1.602-.2-6.292-11.107-14.901 1.401z" opacity=".1"/>
                <path fill="#848A96" d="M23.835 66.541l-2.804 1.501s-.5 6.004-.8 6.805c-.3.8 0 8.905 0 8.905l-.137 16.41s-.432 8.706 0 11.808c.433 3.102.917 14.91.917 14.91s2.708 11.506 1.706 15.609c-1 4.102.1 13.308 1.802 12.508 1.702-.8 17.42-3.903 18.221-4.503.801-.6.4-6.204 0-6.905-.4-.7-2.803-10.206-2.603-12.407.2-2.202-.7-21.514-.7-21.514s1.501-20.613 2.102-25.416c.6-4.802-1.201-18.911-2.803-19.111-1.602-.2-6.291-11.107-14.901 1.4z"/>
                <path fill="#000" d="M53.78 22.004c-1.202.216-2.091 1.357-2.404 2.55-.312 1.192-.228 2.45-.224 3.686a23.848 23.848 0 0 1-1.29 7.805l-5.345-10.77c-.105-.213-.213-.433-.317-.653.248.74.554 1.461.917 2.153l5.346 10.77a23.848 23.848 0 0 0 1.29-7.804c0-1.237-.1-2.494.224-3.686.324-1.193 1.201-2.334 2.403-2.55.388.607.734 1.24 1.037 1.893a15.606 15.606 0 0 0-1.638-3.394zM81.479 9.016a5.665 5.665 0 0 1-.096 2.982c-.14.484-.382.933-.71 1.317-.908 1.004-2.402 1.124-3.771 1.176l-9.235.345a8.506 8.506 0 0 0-2.206.276c-2.716.836-3.973 3.726-4.073 6.324-.1 2.597-1.602 5.507-4.513 5.735-.29.05-.588-.017-.83-.184.093.26.181.525.257.8.041.267.163.514.348.71.242.166.54.232.83.183 2.93-.228 4.404-3.11 4.513-5.735.108-2.626 1.357-5.488 4.072-6.324a8.506 8.506 0 0 1 2.207-.276L77.506 16c1.354-.052 2.864-.172 3.773-1.176.327-.384.569-.833.708-1.317a5.68 5.68 0 0 0-.508-4.491z"/>
                <path fill="#000" d="M66.776 173.384s3.468-1.801 4.805-1.701c1.338.1 13.347 15.366 13.347 15.366l-18.152-13.665zM31.203 70.072s-6.34 2.705-6.171 4.575c.168 1.869 6.171-4.575 6.171-4.575zM28.116 78.917s-6.652 8.501-5.182 8.786c1.47.284 5.182-8.786 5.182-8.786zM50.365 91.657s.609 19.012-4.269 21.413l4.269-21.413zM25.016 142.42s4.693-2.665 5.77-2.133c1.078.533-5.77 2.134-5.77 2.134zM25.837 146.107s2.963.212 4.369-.4c1.406-.613-4.369.4-4.369.4zM96.578 76.1s3.676 10.554 5.794 10.554M44.302 278.241s6.896-1.869 7.913 0c1.017 1.87-7.913 0-7.913 0zM22.381 250.528s-1.718 2.63.553 3.43c2.27.8-.553-3.43-.553-3.43zM68.185 213.833s5.206 4.635 7.665 4.771c2.459.136-7.665-4.77-7.665-4.77z" opacity=".1"/>
            </g>
            <g transform="translate(90 80)">
                <path fill="#E6ECF8" d="M69.054 111.348l-5.9 2.288-8.629 3.342c-.326-.6-.806-1.435-1.4-2.402-2.043-3.393-5.427-8.67-8.436-13.31-3.389-5.239-6.311-9.643-6.311-9.643l2.116-.6 17.259-5.015 11.301 25.34z"/>
                <path fill="#000" d="M69.054 111.348l-5.9 2.288c-3.298.688-6.662.998-10.028.925-2.044-3.393-5.428-8.67-8.437-13.31l-4.195-10.25 17.259-5.014 11.301 25.361z" opacity=".1"/>
                <path fill="#86BE26" d="M73.441 109.937s-9.17 5.435-22.863 4.204L39.664 87.482l5.232-.9L62.98 83.47l10.256 25.947.206.52z"/>
                <path fill="#000" d="M73.24 109.409a43.076 43.076 0 0 1-7.168-.204c-2.721-.322-5.457-.979-7.792-2.192a23.586 23.586 0 0 1-5.094-3.432c-3.803-3.426-6.156-8.329-8.269-17.009L63 83.462l10.24 25.947z" opacity=".1"/>
                <path fill="#F9FAFB" d="M79.969 107.92s-6.764 1.327-13.64.51c-2.72-.321-5.456-.982-7.791-2.192a23.769 23.769 0 0 1-5.095-3.431c-4.705-4.243-7.192-10.743-9.752-23.873 0 0 11.236 2.703 22.342-3.236-.015.012 3.731 23.43 13.936 32.222z"/>
                <path fill="#000" d="M66.33 108.436c-2.721-.321-5.457-.982-7.792-2.192a23.769 23.769 0 0 1-5.095-3.431c4.007-.328 4.583-2.522 4.583-2.522 2.957 4.716 8.304 8.145 8.304 8.145z" opacity=".1"/>
                <path fill="#6C63FF" d="M49.487 83.753s9.138-.516 11.688-2.489l.39 1.243s-6.039 2.67-12.078 2.702v-1.456zM49.487 89.9s8.847-.484 15.53-3.72l.228.519s-5.307 3.101-15.758 3.903v-.703zM50.198 92.301s8.85-.486 15.533-3.72l.224.517S60.651 92.199 50.198 93v-.7zM50.911 94.7s8.847-.483 15.53-3.72l.228.52S61.36 94.6 50.91 95.402V94.7zM51.621 97.102s8.85-.486 15.533-3.72l.225.516S62.074 97 51.62 97.802v-.7zM52.334 99.5s8.847-.482 15.53-3.72l.228.52s-5.307 3.102-15.758 3.903v-.702z" opacity=".3"/>
                <path fill="#464A5F" d="M287.535 135.698l.177.13.027-.28-.117-.25-.188.03z"/>
                <path fill="#000" d="M287.535 135.698l.177.13.027-.28-.117-.25-.188.03z" opacity=".1"/>
                <path fill="#9C9CA1" d="M287.535 135.698l.174.132-.12.201-.17-.036-.051-.069z"/>
                <path fill="#000" d="M287.535 135.698l.174.132-.12.201-.17-.036-.051-.069z" opacity=".1"/>
                <path fill="#9C9CA1" d="M254.68 112.366l-14.055 19.588a1.647 1.647 0 0 0 .369 2.288l30.005 21.789c.73.53 1.75.368 2.283-.36l14.304-19.64-32.905-23.665z"/>
                <path fill="#000" d="M254.68 112.366l-14.055 19.588a1.647 1.647 0 0 0 .369 2.288l30.005 21.789c.73.53 1.75.368 2.283-.36l14.304-19.64-32.905-23.665z" opacity=".1"/>
                <path fill="#9C9CA1" d="M254.627 112.039l-14.056 19.588a1.644 1.644 0 0 0 .369 2.285l29.996 21.785a1.637 1.637 0 0 0 2.283-.363l14.304-19.636-32.896-23.659z"/>
                <path fill="#464A5F" d="M254.453 99.91l.372 11.973 32.905 23.665-.311-12.184a1.745 1.745 0 0 0-.738-1.384l-31.674-22.368a.347.347 0 0 0-.554.297z"/>
                <path fill="#000" d="M254.453 99.91l.372 11.973 32.905 23.665-.311-12.184a1.745 1.745 0 0 0-.738-1.384l-31.674-22.368a.347.347 0 0 0-.554.297z" opacity=".1"/>
                <path fill="#464A5F" d="M254.255 100.056l.372 11.983 32.905 23.665-.32-12.184a1.748 1.748 0 0 0-.74-1.384L254.8 99.768a.344.344 0 0 0-.546.288z"/>
                <g fill="#000" opacity=".1">
                    <path d="M255.583 117.407l-.851 1.201a.33.33 0 0 0 .075.457l1.198.9a.326.326 0 0 0 .456-.066l.86-1.129a.328.328 0 0 0-.057-.459l-1.223-.967a.326.326 0 0 0-.458.063zM257.8 119.005l-.85 1.2a.33.33 0 0 0 .074.457l1.199.9a.326.326 0 0 0 .456-.065l.86-1.13a.328.328 0 0 0-.057-.459l-1.211-.963a.326.326 0 0 0-.47.06zM260.129 120.68l-.851 1.201a.33.33 0 0 0 .075.456l1.199.901a.326.326 0 0 0 .455-.066l.86-1.129a.33.33 0 0 0-.057-.46l-1.222-.963a.326.326 0 0 0-.459.06zM262.485 122.376l-.852 1.201a.33.33 0 0 0 .072.457l1.2.9a.326.326 0 0 0 .455-.066l.86-1.129a.33.33 0 0 0-.057-.459l-1.223-.964a.326.326 0 0 0-.455.06zM264.84 124.073l-.851 1.2a.33.33 0 0 0 .072.457l1.199.9a.33.33 0 0 0 .458-.065l.86-1.13a.33.33 0 0 0-.057-.459l-1.222-.963a.326.326 0 0 0-.459.06zM267.3 125.619l-1.054 1.501a.156.156 0 0 0 .033.213l1.498 1.1c.067.05.162.036.213-.03l1.07-1.406a.153.153 0 0 0-.027-.213l-1.499-1.201a.156.156 0 0 0-.233.036zM269.656 127.315l-1.055 1.502a.156.156 0 0 0 .033.213l1.499 1.099c.067.05.162.036.212-.03l1.07-1.406a.153.153 0 0 0-.027-.213l-1.498-1.2a.156.156 0 0 0-.234.035zM271.742 128.817l-1.058 1.5a.153.153 0 0 0 .036.214l1.498 1.099c.069.05.164.037.216-.03l1.07-1.402a.156.156 0 0 0-.027-.216l-1.498-1.201a.153.153 0 0 0-.237.036zM274.077 130.498l-1.055 1.501a.15.15 0 0 0 .033.213l1.498 1.1c.068.05.164.036.216-.03l1.07-1.403a.156.156 0 0 0-.027-.216l-1.499-1.186a.153.153 0 0 0-.236.02zM276.33 132.128l-1.055 1.501a.153.153 0 0 0 .036.214l1.499 1.102c.068.049.163.034.212-.034l1.07-1.402a.156.156 0 0 0-.027-.216l-1.498-1.186a.156.156 0 0 0-.237.021zM278.599 133.756l-1.055 1.5a.156.156 0 0 0 .033.214l1.498 1.099c.067.05.162.036.213-.03l1.07-1.405a.153.153 0 0 0-.027-.214l-1.498-1.185a.153.153 0 0 0-.234.02zM280.861 135.386l-1.057 1.501a.153.153 0 0 0 .036.213l1.498 1.102c.069.05.165.035.216-.033l1.07-1.402a.156.156 0 0 0-.027-.216l-1.499-1.201a.153.153 0 0 0-.237.036zM254.033 119.563l-.848 1.201a.33.33 0 0 0 .072.456l1.199.901a.332.332 0 0 0 .458-.066l.86-1.129a.33.33 0 0 0-.056-.46l-1.223-.966a.332.332 0 0 0-.462.063zM250.653 124.277l-.848 1.2a.33.33 0 0 0 .072.457l1.198.901a.332.332 0 0 0 .459-.063l.86-1.129a.33.33 0 0 0-.057-.46l-1.223-.966a.33.33 0 0 0-.461.06zM256.251 121.16l-.851 1.201a.33.33 0 0 0 .072.457l1.199.9a.332.332 0 0 0 .458-.066l.86-1.129a.33.33 0 0 0-.057-.459l-1.222-.967a.33.33 0 0 0-.459.063zM258.58 122.848l-.848 1.2a.33.33 0 0 0 .071.457l1.2.9a.332.332 0 0 0 .458-.062l.86-1.13a.33.33 0 0 0-.057-.459l-1.223-.966a.33.33 0 0 0-.461.06zM260.935 124.535l-.848 1.201a.33.33 0 0 0 .072.456l1.199.901a.332.332 0 0 0 .458-.063l.86-1.132a.328.328 0 0 0-.057-.456l-1.222-.967a.33.33 0 0 0-.462.06zM252.925 125.8l-.849 1.2a.33.33 0 0 0 .072.456l1.2.901a.332.332 0 0 0 .458-.063l.86-1.132a.328.328 0 0 0-.057-.456l-1.223-.967a.33.33 0 0 0-.461.06zM255.253 127.474l-.848 1.201a.33.33 0 0 0 .072.457l1.199.9a.332.332 0 0 0 .458-.066l.86-1.128a.33.33 0 0 0-.057-.46l-1.222-.967a.332.332 0 0 0-.462.063zM257.609 129.17l-.848 1.202a.33.33 0 0 0 .071.456l1.2.9a.332.332 0 0 0 .458-.065l.86-1.13a.33.33 0 0 0-.06-.458l-1.22-.967a.33.33 0 0 0-.461.063zM263.29 126.231l-.847 1.201a.33.33 0 0 0 .072.457l1.198.9a.332.332 0 0 0 .459-.063l.86-1.131a.328.328 0 0 0-.057-.457l-1.21-.988a.33.33 0 0 0-.474.081zM265.646 127.925l-.848 1.2a.33.33 0 0 0 .072.457l1.199.9a.332.332 0 0 0 .458-.062l.86-1.132a.328.328 0 0 0-.056-.456l-1.223-.967a.33.33 0 0 0-.462.06zM268.11 129.471l-1.058 1.501a.153.153 0 0 0 .036.213l1.498 1.1c.068.05.164.036.216-.03l1.07-1.403a.156.156 0 0 0-.027-.216l-1.499-1.2a.153.153 0 0 0-.236.035zM270.193 130.972l-1.055 1.502a.153.153 0 0 0 .036.213l1.498 1.099a.15.15 0 0 0 .213-.03l1.07-1.403a.156.156 0 0 0-.027-.216l-1.499-1.2a.156.156 0 0 0-.236.035zM272.53 132.654l-1.058 1.5a.153.153 0 0 0 .036.214l1.499 1.099a.15.15 0 0 0 .212-.03l1.07-1.402a.156.156 0 0 0-.027-.216l-1.498-1.186a.153.153 0 0 0-.234.02zM274.79 134.284l-1.055 1.501a.156.156 0 0 0 .033.213l1.498 1.1c.067.05.162.036.213-.03l1.07-1.406a.153.153 0 0 0-.027-.213l-1.498-1.201a.156.156 0 0 0-.234.036zM256.973 125.079l-.85 1.2a.33.33 0 0 0 .071.457l1.199.9a.33.33 0 0 0 .458-.065l.86-1.13a.33.33 0 0 0-.056-.459l-1.205-.97a.326.326 0 0 0-.477.067zM259.329 126.775l-.851 1.2a.33.33 0 0 0 .072.457l1.198.901a.33.33 0 0 0 .459-.066l.86-1.129a.33.33 0 0 0-.057-.46l-1.223-.963a.326.326 0 0 0-.458.06zM261.681 128.471l-.848 1.201a.33.33 0 0 0 .072.457l1.199.9a.33.33 0 0 0 .458-.066l.86-1.129a.334.334 0 0 0-.056-.459l-1.223-.964a.33.33 0 0 0-.462.06zM264.043 130.168l-.848 1.2a.33.33 0 0 0 .072.457l1.199.9a.33.33 0 0 0 .458-.065l.86-1.13a.33.33 0 0 0-.057-.459l-1.223-.963a.33.33 0 0 0-.461.06zM266.5 131.714l-1.055 1.501a.15.15 0 0 0 .033.213l1.499 1.1c.068.05.164.036.216-.03l1.07-1.406a.153.153 0 0 0-.027-.213l-1.499-1.186a.153.153 0 0 0-.237.02zM268.586 133.215l-1.058 1.501a.153.153 0 0 0 .036.213l1.499 1.1c.068.05.164.036.216-.03l1.066-1.403a.15.15 0 0 0-.027-.216l-1.498-1.186a.15.15 0 0 0-.234.021zM270.936 134.896l-1.058 1.502a.153.153 0 0 0 .036.213l1.498 1.099c.068.05.164.037.216-.03l1.07-1.402a.156.156 0 0 0-.027-.217l-1.498-1.2a.15.15 0 0 0-.237.035zM273.18 136.527l-1.054 1.501a.16.16 0 0 0 .033.216l1.498 1.1a.156.156 0 0 0 .213-.031l1.07-1.405a.153.153 0 0 0-.027-.213l-1.499-1.201a.156.156 0 0 0-.234.033zM277.052 135.911l-1.057 1.501a.153.153 0 0 0 .035.214l1.499 1.099a.153.153 0 0 0 .216-.03l1.07-1.403a.156.156 0 0 0-.027-.216l-1.499-1.186a.156.156 0 0 0-.237.021zM279.327 137.542l-1.055 1.5a.16.16 0 0 0 .033.217l1.499 1.099a.156.156 0 0 0 .212-.03l1.07-1.405a.153.153 0 0 0-.027-.213l-1.498-1.201a.156.156 0 0 0-.234.033zM269.17 137.337l-.994 1.403a.204.204 0 0 0 .048.285l1.402 1.039a.204.204 0 0 0 .3-.04l1.007-1.32a.204.204 0 0 0-.036-.3l-1.418-1.124a.207.207 0 0 0-.308.057zM271.433 138.965l-.995 1.405a.204.204 0 0 0 .045.285l1.406 1.039a.21.21 0 0 0 .3-.042l1.006-1.321a.207.207 0 0 0-.036-.3l-1.42-1.12a.204.204 0 0 0-.306.054zM273.693 140.592l-.995 1.405a.207.207 0 0 0 .048.3l1.405 1.04a.204.204 0 0 0 .3-.04l1.007-1.324a.201.201 0 0 0-.036-.285l-1.417-1.123a.21.21 0 0 0-.312.027zM275.986 142.177l-1.055 1.502a.156.156 0 0 0 .036.216l1.498 1.099c.067.05.162.036.213-.03l1.07-1.406a.153.153 0 0 0-.027-.213l-1.499-1.2a.156.156 0 0 0-.236.032zM252.355 121.79l-.899 1.289a.33.33 0 0 0 .078.46l3.518 2.51a.326.326 0 0 0 .45-.07l.959-1.252a.328.328 0 0 0-.072-.468l-3.575-2.546a.326.326 0 0 0-.459.078zM275.398 138.178l-1.106 1.576a.153.153 0 0 0 .036.214l3.803 2.702a.156.156 0 0 0 .213-.033l1.169-1.532a.153.153 0 0 0-.033-.219l-3.866-2.753a.153.153 0 0 0-.216.045zM260.006 130.732l-1.058 1.465a.16.16 0 0 0 .033.216l8.242 6.09a.156.156 0 0 0 .212-.03l1.163-1.529a.153.153 0 0 0-.033-.22l-8.337-6.025a.153.153 0 0 0-.222.033z"/>
                </g>
                <path fill="#464A5F" d="M255.547 117.185l-.851 1.201a.33.33 0 0 0 .072.457l1.198.9a.33.33 0 0 0 .459-.063l.86-1.129a.328.328 0 0 0-.057-.46l-1.223-.966a.326.326 0 0 0-.458.06zM257.764 118.782l-.85 1.201a.33.33 0 0 0 .071.457l1.2.9c.142.108.346.08.455-.063l.86-1.128a.328.328 0 0 0-.057-.46l-1.223-.967a.326.326 0 0 0-.456.06zM260.093 120.446l-.845 1.2a.33.33 0 0 0 .072.457l1.199.9a.332.332 0 0 0 .458-.065l.86-1.13a.328.328 0 0 0-.057-.458l-1.222-.967a.33.33 0 0 0-.465.063zM262.449 122.154l-.851 1.201a.33.33 0 0 0 .071.457l1.2.9a.332.332 0 0 0 .458-.066l.86-1.129a.328.328 0 0 0-.057-.46l-1.223-.966a.326.326 0 0 0-.458.063zM264.801 123.85l-.848 1.202a.33.33 0 0 0 .072.456l1.199.9a.332.332 0 0 0 .458-.065l.86-1.13a.33.33 0 0 0-.057-.459l-1.222-.966a.332.332 0 0 0-.462.063zM267.265 125.397l-1.055 1.501a.153.153 0 0 0 .033.213l1.498 1.1c.068.05.164.036.216-.031l1.07-1.405a.153.153 0 0 0-.027-.213l-1.499-1.201a.156.156 0 0 0-.236.036zM269.62 127.093l-1.055 1.501a.153.153 0 0 0 .033.217l1.499 1.098a.159.159 0 0 0 .215-.03l1.07-1.405a.153.153 0 0 0-.027-.213l-1.498-1.2a.156.156 0 0 0-.237.032zM271.706 128.594l-1.058 1.502a.153.153 0 0 0 .036.213l1.498 1.099c.069.05.164.037.216-.03l1.07-1.406a.153.153 0 0 0-.027-.213l-1.498-1.2a.153.153 0 0 0-.237.035zM274.04 130.276l-1.057 1.5a.153.153 0 0 0 .036.214l1.498 1.099c.068.05.164.037.216-.03l1.07-1.405a.153.153 0 0 0-.027-.213l-1.499-1.201a.156.156 0 0 0-.236.036zM276.3 131.903l-1.055 1.501a.156.156 0 0 0 .033.213l1.499 1.1a.15.15 0 0 0 .212-.03l1.07-1.403a.156.156 0 0 0-.027-.216l-1.498-1.186a.156.156 0 0 0-.234.021zM278.563 133.533l-1.055 1.502a.15.15 0 0 0 .033.213l1.498 1.099c.068.05.164.037.216-.03l1.07-1.406a.153.153 0 0 0-.027-.213l-1.498-1.2a.156.156 0 0 0-.237.035zM280.825 135.158l-1.057 1.5a.153.153 0 0 0 .036.214l1.498 1.099c.067.05.162.037.213-.03l1.07-1.402a.153.153 0 0 0-.027-.216l-1.499-1.186a.153.153 0 0 0-.234.02zM253.997 119.34l-.848 1.202a.33.33 0 0 0 .072.456l1.199.901a.332.332 0 0 0 .459-.066l.86-1.129a.33.33 0 0 0-.057-.46l-1.223-.966a.332.332 0 0 0-.462.063zM250.617 124.049l-.851 1.2a.334.334 0 0 0 .075.457l1.199.9c.143.109.346.08.455-.062l.863-1.132a.328.328 0 0 0-.06-.457l-1.22-.966a.33.33 0 0 0-.461.06zM256.215 120.938l-.848 1.201a.33.33 0 0 0 .072.457l1.199.9a.332.332 0 0 0 .458-.066l.86-1.129a.33.33 0 0 0-.057-.46l-1.222-.966a.332.332 0 0 0-.462.063zM258.544 122.614l-.848 1.2a.33.33 0 0 0 .071.457l1.2.9a.33.33 0 0 0 .458-.065l.86-1.13a.334.334 0 0 0-.057-.459l-1.21-.97a.33.33 0 0 0-.474.067zM260.9 124.31l-.849 1.2a.33.33 0 0 0 .072.457l1.199.901a.33.33 0 0 0 .458-.066l.86-1.129a.334.334 0 0 0-.057-.46l-1.222-.963a.33.33 0 0 0-.462.06zM252.889 125.574l-.849 1.2a.33.33 0 0 0 .072.457l1.2.901a.33.33 0 0 0 .458-.066l.86-1.129a.33.33 0 0 0-.06-.46l-1.22-.963a.33.33 0 0 0-.461.06zM255.217 127.252l-.848 1.201a.328.328 0 0 0 .072.454l1.199.9a.33.33 0 0 0 .455-.066l.863-1.129a.33.33 0 0 0-.06-.459l-1.22-.967a.33.33 0 0 0-.46.066zM257.573 128.949l-.851 1.2a.33.33 0 0 0 .075.454l1.198.9a.33.33 0 0 0 .456-.065l.863-1.13a.33.33 0 0 0-.06-.459l-1.205-.97a.33.33 0 0 0-.476.07zM263.255 126.006l-.848 1.201a.33.33 0 0 0 .072.457l1.198.9a.33.33 0 0 0 .459-.066l.86-1.129a.33.33 0 0 0-.06-.459l-1.193-.97a.33.33 0 0 0-.488.066zM265.61 127.703l-.848 1.2a.33.33 0 0 0 .072.457l1.199.9a.326.326 0 0 0 .455-.065l.864-1.13a.33.33 0 0 0-.06-.459l-1.22-.963a.33.33 0 0 0-.462.06zM268.074 129.249l-1.058 1.501a.153.153 0 0 0 .036.213l1.498 1.1c.068.05.164.036.216-.03l1.07-1.406a.15.15 0 0 0-.03-.213l-1.498-1.186a.15.15 0 0 0-.234.02zM270.157 130.75l-1.055 1.501a.156.156 0 0 0 .033.214l1.498 1.098c.067.05.162.037.213-.03l1.07-1.402a.156.156 0 0 0-.027-.216l-1.499-1.186a.153.153 0 0 0-.233.021zM272.491 132.431l-1.055 1.502a.156.156 0 0 0 .033.213l1.499 1.099c.067.05.162.036.212-.03l1.07-1.402a.156.156 0 0 0-.027-.217l-1.498-1.186a.153.153 0 0 0-.234.021zM274.754 134.062l-1.055 1.501a.153.153 0 0 0 .033.213l1.498 1.102a.156.156 0 0 0 .213-.03l1.07-1.405a.156.156 0 0 0-.027-.216l-1.498-1.186a.156.156 0 0 0-.234.02zM256.934 124.856l-.848 1.201a.33.33 0 0 0 .072.457l1.199.9a.33.33 0 0 0 .458-.066l.86-1.129a.33.33 0 0 0-.056-.459l-1.223-.964a.33.33 0 0 0-.462.06zM259.29 126.553l-.848 1.2a.33.33 0 0 0 .072.457l1.198.9a.33.33 0 0 0 .459-.065l.86-1.13a.33.33 0 0 0-.057-.459l-1.223-.963a.33.33 0 0 0-.461.06zM261.645 128.252l-.848 1.201a.33.33 0 0 0 .072.456l1.199.901a.332.332 0 0 0 .459-.066l.86-1.129a.33.33 0 0 0-.057-.46l-1.223-.966a.332.332 0 0 0-.462.063zM264.001 129.945l-.848 1.201a.33.33 0 0 0 .072.457l1.199.9a.332.332 0 0 0 .458-.066l.86-1.128a.33.33 0 0 0-.057-.46l-1.222-.967a.332.332 0 0 0-.462.063zM266.464 131.492l-1.057 1.5a.153.153 0 0 0 .035.214l1.499 1.099c.068.05.164.037.216-.03l1.07-1.405a.153.153 0 0 0-.027-.213l-1.499-1.201a.156.156 0 0 0-.237.036zM268.538 132.993l-1.055 1.501a.153.153 0 0 0 .036.213l1.499 1.1c.067.05.162.036.213-.03l1.07-1.406a.153.153 0 0 0-.028-.213l-1.498-1.201a.156.156 0 0 0-.237.036zM270.885 134.674l-1.058 1.501a.153.153 0 0 0 .036.214l1.498 1.099c.067.05.162.036.213-.03l1.07-1.406a.15.15 0 0 0-.027-.213l-1.498-1.2a.153.153 0 0 0-.234.035zM273.144 136.305l-1.054 1.5a.156.156 0 0 0 .033.214l1.498 1.102c.068.05.163.035.213-.033l1.07-1.402a.156.156 0 0 0-.027-.216l-1.499-1.201a.156.156 0 0 0-.234.036zM277.016 135.69l-1.057 1.5a.153.153 0 0 0 .036.213l1.498 1.1c.068.05.164.036.216-.03l1.07-1.403a.156.156 0 0 0-.027-.216l-1.499-1.186a.15.15 0 0 0-.237.021zM279.276 137.32l-1.055 1.5a.156.156 0 0 0 .033.214l1.499 1.102c.068.05.163.034.212-.033l1.07-1.402a.156.156 0 0 0-.027-.217l-1.498-1.2a.156.156 0 0 0-.234.035zM269.138 137.112l-.995 1.405a.204.204 0 0 0 .045.286l1.405 1.038a.21.21 0 0 0 .3-.042l1.007-1.32a.207.207 0 0 0-.036-.3l-1.418-1.12a.21.21 0 0 0-.308.053zM271.394 138.743l-.992 1.402a.21.21 0 0 0 .045.3l1.406 1.039a.204.204 0 0 0 .3-.042l1.01-1.321a.207.207 0 0 0-.04-.3l-1.417-1.12a.207.207 0 0 0-.312.042zM273.657 140.37l-.995 1.405a.207.207 0 0 0 .048.285l1.402 1.04a.207.207 0 0 0 .3-.043l1.007-1.321a.204.204 0 0 0-.036-.3l-1.417-1.12a.21.21 0 0 0-.31.054zM275.95 141.955l-1.055 1.501a.156.156 0 0 0 .033.214l1.498 1.101c.068.05.163.035.213-.033l1.07-1.402a.156.156 0 0 0-.027-.216l-1.499-1.2a.156.156 0 0 0-.233.035zM252.304 121.569l-.899 1.288a.33.33 0 0 0 .078.46l3.521 2.51a.33.33 0 0 0 .453-.07l.959-1.252a.328.328 0 0 0-.072-.468l-3.575-2.546a.33.33 0 0 0-.465.078zM275.362 137.956l-1.106 1.576a.153.153 0 0 0 .036.213l3.803 2.703c.068.047.16.032.21-.033l1.172-1.532a.153.153 0 0 0-.033-.219l-3.866-2.753a.153.153 0 0 0-.216.045zM259.97 130.51l-1.064 1.465a.16.16 0 0 0 .033.216l8.242 6.09c.068.049.163.034.212-.034l1.163-1.528a.153.153 0 0 0-.033-.22l-8.337-6.022a.153.153 0 0 0-.216.033z"/>
                <path fill="#000" d="M255.14 132.203l-4.664 6.465a.839.839 0 0 0 .18 1.164l12.035 8.915a.838.838 0 0 0 1.175-.18l4.813-6.606a.839.839 0 0 0-.186-1.177l-12.185-8.782a.838.838 0 0 0-1.169.201z" opacity=".1"/>
                <path fill="#939498" d="M255.103 131.981l-4.666 6.461a.845.845 0 0 0 .183 1.168l12.035 8.914a.838.838 0 0 0 1.175-.18l4.813-6.605a.842.842 0 0 0-.189-1.177l-12.182-8.782a.838.838 0 0 0-1.169.201z"/>
                <path fill="#86BE26" d="M255.706 102.008l.2 10.11 30.398 21.818-.27-10.013a1.754 1.754 0 0 0-.713-1.375l-29.07-20.831a.347.347 0 0 0-.545.29zM.96 155.93l13.442-9.67a.873.873 0 0 1 1.22.2l14.847 20.716a.873.873 0 0 1-.2 1.217l-13.442 9.67a.873.873 0 0 1-1.219-.2L.761 157.146a.873.873 0 0 1 .2-1.218z"/>
                <path fill="#000" d="M3.019 157.331l12.234-8.8a.054.054 0 0 1 .076.011l3.055 4.264a.054.054 0 0 1-.012.075l-12.235 8.801a.054.054 0 0 1-.075-.012l-3.056-4.263a.054.054 0 0 1 .013-.076z" opacity=".1"/>
                <path fill="#E6E8EC" d="M3.929 156.803l10.506-7.558a1.005 1.005 0 0 1 1.404.23l1.846 2.576c.323.45.22 1.078-.23 1.401L6.949 161.01a1.005 1.005 0 0 1-1.404-.23l-1.846-2.576a1.005 1.005 0 0 1 .23-1.401z"/>
                <path fill="#000" d="M8.161 162.975l1.775-1.277a.417.417 0 0 1 .582.096l1.47 2.051a.417.417 0 0 1-.095.582l-1.775 1.276a.417.417 0 0 1-.582-.096l-1.47-2.05a.417.417 0 0 1 .095-.582zM10.655 160.7l1.766-1.268a.417.417 0 0 1 .583.096l1.46 2.043a.417.417 0 0 1-.096.581L12.6 163.42a.417.417 0 0 1-.582-.097l-1.46-2.042a.417.417 0 0 1 .096-.582zM14.151 158.665l1.775-1.277a.417.417 0 0 1 .582.096l1.47 2.051a.417.417 0 0 1-.095.581l-1.774 1.277a.417.417 0 0 1-.583-.096l-1.47-2.05a.417.417 0 0 1 .095-.582zM17.238 156.535l1.677-1.207a.477.477 0 0 1 .666.11l1.4 1.953a.477.477 0 0 1-.109.665l-1.677 1.207a.477.477 0 0 1-.666-.11l-1.4-1.953a.477.477 0 0 1 .109-.665zM10.309 165.977l1.774-1.276a.417.417 0 0 1 .583.096l1.47 2.05a.417.417 0 0 1-.096.582l-1.774 1.277a.417.417 0 0 1-.582-.096l-1.47-2.051a.417.417 0 0 1 .095-.582zM13.307 163.82l1.775-1.276a.417.417 0 0 1 .582.095l1.47 2.052a.417.417 0 0 1-.095.581l-1.774 1.277a.417.417 0 0 1-.583-.096l-1.47-2.051a.417.417 0 0 1 .095-.582zM16.3 161.665l1.775-1.277a.417.417 0 0 1 .582.096l1.47 2.051a.417.417 0 0 1-.095.582l-1.774 1.276a.417.417 0 0 1-.583-.096l-1.47-2.05a.417.417 0 0 1 .095-.582zM12.687 169.287l1.774-1.276a.417.417 0 0 1 .583.096l1.47 2.05a.417.417 0 0 1-.096.582l-1.774 1.277a.417.417 0 0 1-.582-.096l-1.47-2.051a.417.417 0 0 1 .095-.582zM15.68 167.132l1.774-1.276a.417.417 0 0 1 .583.095l1.47 2.051a.417.417 0 0 1-.096.582l-1.774 1.276a.417.417 0 0 1-.582-.095l-1.47-2.052a.417.417 0 0 1 .095-.581zM18.677 164.98l1.774-1.276a.417.417 0 0 1 .583.095l1.47 2.052a.417.417 0 0 1-.095.581l-1.775 1.276a.417.417 0 0 1-.582-.095l-1.47-2.051a.417.417 0 0 1 .095-.582zM21.05 168.292l1.774-1.276a.417.417 0 0 1 .582.095l1.47 2.051a.417.417 0 0 1-.095.582l-1.774 1.276a.417.417 0 0 1-.583-.095l-1.47-2.052a.417.417 0 0 1 .096-.581zM19.221 159.652l2.008-1.445a.273.273 0 0 1 .382.063l1.637 2.285a.273.273 0 0 1-.062.38l-2.008 1.445a.273.273 0 0 1-.381-.062l-1.638-2.285a.273.273 0 0 1 .062-.381zM15.25 172.461l4.383-3.153a.654.654 0 0 1 .914.15l1.194 1.665a.654.654 0 0 1-.15.912l-4.383 3.154a.654.654 0 0 1-.914-.15l-1.194-1.666a.654.654 0 0 1 .15-.912zM21.6 162.873l1.677-1.207a.621.621 0 0 1 .868.143l3.606 5.031c.2.279.136.666-.142.866l-1.677 1.206a.621.621 0 0 1-.867-.142l-3.606-5.031a.621.621 0 0 1 .142-.866z" opacity=".1"/>
                <path fill="#6C63FF" d="M16.124 153.299l1.074-.773.084.118-1.074.772zM14.553 154.428l1.074-.772.083.117-1.073.772zM12.982 155.557l1.073-.772.084.117-1.073.772zM11.412 156.688l1.074-.772.083.117-1.073.772z"/>
                <path fill="#F9FAFB" d="M214.182 20.305h-18.713a.98.98 0 0 0-.98.98v11.844a.983.983 0 0 0 .98.988h14.685s.38 2.023-.869 2.24c0 0 2.796.2 2.308-2.24h2.595a.98.98 0 0 0 .977-.98V21.279a.98.98 0 0 0-.983-.973z"/>
                <g fill="#6C63FF" opacity=".2" transform="translate(197.22 23.419)">
                    <rect width="15.158" height="1" x=".027" y=".024" rx=".417"/>
                    <rect width="15.158" height="1" x=".027" y="4.161" rx=".417"/>
                    <rect width="12.713" height="1" x=".027" y="6.227" rx=".417"/>
                    <rect width="6.572" height="1" x=".027" y="2.093" rx=".417"/>
                </g>
                <path fill="#F9FAFB" d="M209.872 0c-.649.002-1.174.53-1.174 1.18v14.246c.001.65.526 1.176 1.174 1.177h17.658s.456 2.432-1.046 2.703c0 0 3.366.243 2.778-2.703h3.117a1.182 1.182 0 0 0 1.178-1.177V1.18A1.182 1.182 0 0 0 232.379 0h-22.507z"/>
                <g fill="#6C63FF" opacity=".2" transform="translate(211.904 3.603)">
                    <rect width="18.233" height="1.114" x=".108" y=".18" rx=".501"/>
                    <rect width="15.044" height="1.114" x=".108" y="5.155" rx=".501"/>
                    <rect width="10.831" height="1.114" x=".108" y="2.666" rx=".501"/>
                </g>
                <path fill="#848A96" fill-rule="nonzero" d="M247.647 218.51a4.624 4.624 0 0 0-6.14 2.262 4.64 4.64 0 0 0 2.254 6.153 4.624 4.624 0 0 0 6.143-2.256 4.642 4.642 0 0 0-2.257-6.158zm-3.15 6.816a2.874 2.874 0 0 1 .216-5.305 2.864 2.864 0 0 1 3.098.751 2.877 2.877 0 0 1-1.121 4.645 2.86 2.86 0 0 1-2.193-.09z"/>
                <path fill="#848A96" d="M241.923 206.615l-8.61 6.068a4.227 4.227 0 0 0-1.82 3.456c0 2.18.993 5.452 5.74 8.407 1.43.89 3.247.86 4.648-.075l8.391-5.624-8.349-12.232z"/>
                <path fill="#848A96" d="M251.438 218.403c-1.381 1.15-4.657-.535-7.321-3.76-2.665-3.224-3.707-6.764-2.326-7.91 1.382-1.148 4.663.537 7.328 3.758.167.208.335.415.488.622l.174.237a12.376 12.376 0 0 1 2.134 4.333c.03.144.06.285.078.423.158 1.018-.01 1.85-.555 2.297z"/>
                <ellipse cx="246.615" cy="212.559" fill="#F9FAFB" rx="2.627" ry="6.123" transform="rotate(-39.63 246.615 212.559)"/>
                <path fill="#000" d="M250.794 216.947c-.021.039-.045.075-.066.11a1.2 1.2 0 0 1-.213.229c-.68.567-1.933.282-3.297-.6l-.14-.097c-.448-.31-.873-.654-1.271-1.026-.433-.407-.84-.841-1.217-1.3-.26-.3-.497-.628-.716-.943-.318-.454-.603-.93-.854-1.423a.487.487 0 0 1-.03-.054c-.9-1.769-1.052-3.34-.279-3.979 1.118-.927 3.77.436 5.925 3.042.258.3.497.627.713.946.048.063.093.129.135.195 1.33 1.972 1.858 3.92 1.31 4.9z" opacity=".1"/>
                <path fill="#000" d="M251.915 215.683a1.922 1.922 0 0 1-.983.924l-.138.048c-.098.03-.198.05-.3.06a2.492 2.492 0 0 1-1.052-.123c-1.414-.447-2.068-.438-2.364-.3-.448-.31-.873-.654-1.271-1.027-.433-.406-.84-.84-1.217-1.3-.26-.3-.497-.627-.716-.943-.318-.453-.603-.929-.854-1.423 1.43.57 4.216 1.58 5.154 1.15a2.933 2.933 0 0 0 1.08-1.045l.092-.144.04-.063c.074-.123.15-.243.215-.37 1.21 1.583 2.01 3.21 2.314 4.556z" opacity=".1"/>
                <path fill="#000" d="M251.993 216.106c-.212.537-.651.952-1.2 1.132-.097.03-.197.05-.299.06a2.492 2.492 0 0 1-1.052-.123c-1.022-.321-1.648-.409-2.026-.381a.987.987 0 0 0-.338.072c-.448-.311-.873-.654-1.271-1.027-.433-.407-.84-.841-1.217-1.3-.26-.3-.497-.628-.716-.943a11.534 11.534 0 0 1-.854-1.423c.063.027.126.054.198.078 1.477.582 4.06 1.48 4.956 1.075a2.948 2.948 0 0 0 1.082-1.054l.093-.144.04-.063a6.91 6.91 0 0 0 .39-.715 12.376 12.376 0 0 1 2.133 4.333c.033.144.063.285.08.423z" opacity=".1"/>
                <path fill="#59393C" d="M255.415 206.714c-.336.267-.71.482-1.109.637a3.604 3.604 0 0 0-2.134 4.095l.018.075c.489 2.063.276 4.945-1.396 5.426-.098.03-.198.05-.3.06a2.492 2.492 0 0 1-1.052-.123c-1.414-.448-2.068-.439-2.364-.3-.448-.311-.873-.655-1.271-1.027-.433-.407-.84-.841-1.217-1.3-.26-.3-.497-.628-.716-.943-.318-.454-.603-.93-.854-1.423 1.43.57 4.216 1.579 5.154 1.152a2.948 2.948 0 0 0 1.082-1.053l.093-.144.04-.064a7.272 7.272 0 0 0 1.07-3.365c.11-1.622.826-4.438 4.542-3.555a1.053 1.053 0 0 1 .414 1.852z"/>
                <ellipse cx="19.186" cy="287.669" fill="#6C63FF" opacity=".1" rx="8.967" ry="1.519"/>
                <path fill="#A8A8A8" d="M13.162 280.613s5.116-.16 6.656-1.258c1.54-1.099 7.867-2.402 8.25-.649.384 1.754 7.688 8.77 1.913 8.819-5.775.048-13.417-.901-14.958-1.84-1.54-.94-1.86-5.072-1.86-5.072z"/>
                <path fill="#000" d="M30.083 286.91c-5.775.047-13.417-.902-14.955-1.841-1.172-.715-1.64-3.28-1.798-4.465h-.17s.323 4.131 1.86 5.071c1.538.94 9.183 1.886 14.958 1.84 1.666-.014 2.241-.6 2.211-1.5-.227.552-.866.885-2.106.894z" opacity=".2"/>
            </g>
        </g>
    </g>
</svg>
