<svg xmlns="http://www.w3.org/2000/svg" width="202" height="122" viewBox="0 0 202 122">
    <g fill="none" fill-rule="evenodd">
        <path stroke="#86BE26" stroke-width="1.6" d="M21 41c11.046 0 20-8.954 20-20S32.046 1 21 1 1 9.954 1 21s8.954 20 20 20z" opacity=".3"/>
        <path d="M9 9h24v24H9z"/>
        <path fill="#86BE26" d="M19.72 29l-.02-7H17v-3h2.7v-2c0-2.7 1.504-4 3.671-4 1.038 0 1.93.086 2.19.124v2.821H24.06c-1.179 0-1.407.623-1.407 1.536V19H26l-.9 3h-2.448v7H19.72z" opacity=".7"/>
        <g>
            <path stroke="#86BE26" stroke-width="1.6" d="M101 41c11.046 0 20-8.954 20-20s-8.954-20-20-20-20 8.954-20 20 8.954 20 20 20z" opacity=".3"/>
            <path d="M89 9h24v24H89z"/>
            <path fill="#86BE26" d="M101.058 19.857V22.6h4.789c-.234 1.143-1.402 3.429-4.672 3.429-2.803 0-5.022-2.286-5.022-5.029s2.336-5.029 5.022-5.029c1.635 0 2.686.686 3.27 1.258l2.22-2.058c-1.402-1.371-3.27-2.171-5.49-2.171C96.62 13 93 16.543 93 21s3.62 8 8.175 8c4.672 0 7.825-3.2 7.825-7.771 0-.572 0-.915-.117-1.372h-7.825z" opacity=".7"/>
        </g>
        <g>
            <path stroke="#86BE26" stroke-width="1.6" d="M201 21c0 11.046-8.955 20-20 20s-20-8.954-20-20 8.955-20 20-20 20 8.954 20 20z" opacity=".3"/>
            <path d="M169 9h24v24h-24z"/>
            <path fill="#86BE26" d="M188.205 13h-14.51c-.397 0-.695.3-.695.7v14.7c0 .3.298.6.696.6h14.608c.398 0 .696-.3.696-.7V13.7c-.1-.4-.397-.7-.795-.7zm-10.534 13.602h-2.285v-7.6h2.385v7.6h-.1zm-1.092-8.6c-.796 0-1.392-.7-1.392-1.4 0-.8.596-1.4 1.392-1.4.795 0 1.39.6 1.39 1.4-.098.7-.695 1.4-1.39 1.4zm9.938 8.597h-2.386v-3.7c0-.9 0-2-1.192-2-1.193 0-1.391 1-1.391 2v3.8h-2.386v-7.7h2.286v1c.298-.6 1.094-1.2 2.186-1.2 2.385 0 2.783 1.6 2.783 3.6v4.2h.1z" opacity=".7"/>
        </g>
        <g>
            <path stroke="#292F42" stroke-width="1.6" d="M21 121c11.046 0 20-8.954 20-20s-8.954-20-20-20-20 8.954-20 20 8.954 20 20 20z" opacity=".3"/>
            <path d="M9 89h24v24H9z"/>
            <path fill="#292F42" d="M19.72 109l-.02-7H17v-3h2.7v-2c0-2.7 1.504-4 3.671-4 1.038 0 1.93.086 2.19.124v2.821H24.06c-1.179 0-1.407.623-1.407 1.536V99H26l-.9 3h-2.448v7H19.72z" opacity=".7"/>
            <g>
                <path stroke="#292F42" stroke-width="1.6" d="M101 121c11.046 0 20-8.954 20-20s-8.954-20-20-20-20 8.954-20 20 8.954 20 20 20z" opacity=".3"/>
                <path d="M89 89h24v24H89z"/>
                <path fill="#292F42" d="M101.058 99.857v2.743h4.789c-.234 1.143-1.402 3.429-4.672 3.429-2.803 0-5.022-2.286-5.022-5.029s2.336-5.029 5.022-5.029c1.635 0 2.686.686 3.27 1.258l2.22-2.058c-1.402-1.371-3.27-2.171-5.49-2.171C96.62 93 93 96.543 93 101s3.62 8 8.175 8c4.672 0 7.825-3.2 7.825-7.771 0-.572 0-.915-.117-1.372h-7.825z" opacity=".7"/>
            </g>
            <g>
                <path stroke="#292F42" stroke-width="1.6" d="M201 101c0 11.046-8.955 20-20 20s-20-8.954-20-20 8.955-20 20-20 20 8.954 20 20z" opacity=".3"/>
                <path d="M169 89h24v24h-24z"/>
                <path fill="#292F42" d="M188.205 93h-14.51c-.397 0-.695.3-.695.7v14.7c0 .3.298.6.696.6h14.608c.398 0 .696-.3.696-.7V93.7c-.1-.4-.397-.7-.795-.7zm-10.534 13.602h-2.285v-7.6h2.385v7.6h-.1zm-1.092-8.6c-.796 0-1.392-.7-1.392-1.4 0-.8.596-1.4 1.392-1.4.795 0 1.39.6 1.39 1.4-.098.7-.695 1.4-1.39 1.4zm9.938 8.597h-2.386v-3.7c0-.9 0-2-1.192-2-1.193 0-1.391 1-1.391 2v3.8h-2.386v-7.7h2.286v1c.298-.6 1.094-1.2 2.186-1.2 2.385 0 2.783 1.6 2.783 3.6v4.2h.1z" opacity=".7"/>
            </g>
        </g>
    </g>
</svg>
