<svg width="71" height="16" viewBox="0 0 71 16" fill="none" xmlns="http://www.w3.org/2000/svg">
<path opacity="0.5" fill-rule="evenodd" clip-rule="evenodd" d="M62.5 13.267L57.247 16L58.251 10.211L54 6.111L59.873 5.267L62.5 0L65.127 5.267L71 6.11L66.75 10.21L67.754 16L62.5 13.267Z" fill="#C8C9CE"/>
<path fill-rule="evenodd" clip-rule="evenodd" d="M8.501 13.267L3.248 16L4.25 10.21L0 6.11L5.873 5.266L8.501 0L11.128 5.267L17 6.11L12.75 10.21L13.754 16L8.501 13.267Z" fill="#FFB951"/>
<path opacity="0.5" fill-rule="evenodd" clip-rule="evenodd" d="M35.5 13.267L30.246 16L31.25 10.21L27 6.111L32.873 5.267L35.5 0L38.127 5.267L44 6.11L39.75 10.21L40.753 16L35.5 13.267Z" fill="#C8C9CE"/>
<path fill-rule="evenodd" clip-rule="evenodd" d="M30.266 16L31.276 10.211L27 6.111L32.908 5.267L35.55 0L38.192 5.267L30.266 16Z" fill="#FFB951"/>
</svg>
