<svg xmlns="http://www.w3.org/2000/svg" xmlns:xlink="http://www.w3.org/1999/xlink" width="474" height="478" viewBox="0 0 474 478">
    <defs>
        <rect id="b" width="314" height="314" rx="5"/>
        <filter id="a" width="130.3%" height="130.3%" x="-15.1%" y="-8.8%" filterUnits="objectBoundingBox">
            <feMorphology in="SourceAlpha" radius="2.5" result="shadowSpreadOuter1"/>
            <feOffset dy="20" in="shadowSpreadOuter1" result="shadowOffsetOuter1"/>
            <feGaussianBlur in="shadowOffsetOuter1" result="shadowBlurOuter1" stdDeviation="15"/>
            <feColorMatrix in="shadowBlurOuter1" values="0 0 0 0 0.160784314 0 0 0 0 0.184313725 0 0 0 0 0.258823529 0 0 0 0.1 0"/>
        </filter>
        <path id="c" d="M75 150c41.421 0 75-33.579 75-75S116.421 0 75 0 0 33.579 0 75s33.579 75 75 75z"/>
        <linearGradient id="e" x1="100%" y1="0%" y2="100%">
            <stop offset="0%" stop-color="#1D0024"/>
            <stop offset="100%" stop-color="#100014"/>
        </linearGradient>
        <linearGradient id="f" x1="0%" x2="0%" y1="0%" y2="100%">
            <stop offset="0%" stop-color="#1D0024"/>
            <stop offset="100%" stop-color="#100014"/>
        </linearGradient>
        <linearGradient id="g" x1="0%" x2="0%" y1="0%" y2="100%">
            <stop offset="0%" stop-color="#F7B186"/>
            <stop offset="100%" stop-color="#FFC299"/>
        </linearGradient>
        <linearGradient id="h" x1="99.999%" x2="99.999%" y1="0%" y2="100%">
            <stop offset="0%" stop-color="#1D0024"/>
            <stop offset="100%" stop-color="#100014"/>
        </linearGradient>
    </defs>
    <g fill="none" fill-rule="evenodd">
        <path stroke="#C4E58B" stroke-dasharray="5" stroke-width="1.6" d="M236.961 477.095c130.366 0 236.048-106.577 236.048-238.048C473.009 107.577 367.327 1 236.961 1 106.596 1 .914 107.577.914 239.047s105.682 238.048 236.047 238.048z" opacity=".4"/>
        <path stroke="#C4E58B" stroke-dasharray="5" stroke-width="1.6" d="M236.962 417.039c99.407 0 179.992-80.586 179.992-179.992 0-99.407-80.585-179.992-179.992-179.992-99.406 0-179.991 80.585-179.991 179.992 0 99.406 80.585 179.992 179.991 179.992z" opacity=".4"/>
        <path fill="#FFF" d="M326.905 173.107c-3.924.429-3.259 6.526.665 6.132 3.924-.394 3.258-6.517-.665-6.132z"/>
        <path fill="#FAFAFA" d="M352.043 241.769c-3.924.43-3.258 6.526.666 6.132 3.924-.394 3.258-6.561-.666-6.132zM343.161 289.441c-3.924.43-3.258 6.527.666 6.132 3.923-.394 3.267-6.561-.666-6.132zM366.592 350.314c-3.924.43-3.259 6.526.665 6.132 3.924-.394 3.25-6.561-.665-6.132zM422.865 349.44c-3.924.429-3.258 6.526.666 6.132 3.924-.395 3.267-6.57-.666-6.132z"/>
        <path fill="#FFF" d="M416.761 173.004c-3.924.429-3.258 6.524.666 6.13 3.924-.394 3.258-6.559-.666-6.13zM457.198 164.166c-3.924.429-3.258 6.525.666 6.131 3.924-.394 3.267-6.56-.666-6.131z"/>
        <path fill="#FAFAFA" d="M382.007 193.551c-5.045.552-4.195 8.39.876 7.839 5.071-.552 4.169-8.391-.876-7.839zM432.281 274.392c-5.045.552-4.195 8.391.876 7.839 5.071-.552 4.16-8.4-.876-7.839zM356.08 399.485c-5.605.613-4.659 9.319.955 8.706 5.615-.613 4.677-9.328-.955-8.706zM328.271 193.713c-5.605.613-4.659 9.32.955 8.707 5.614-.613 4.66-9.321-.955-8.707z"/>
        <path fill="#FFF" d="M205.428 59.937c3.828.964 2.33 6.911-1.498 5.948-3.827-.964-2.347-6.911 1.498-5.948z"/>
        <path fill="#FAFAFA" d="M171.095 124.453c3.827.963 2.33 6.91-1.498 5.947-3.827-.964-2.33-6.911 1.498-5.947zM173.347 172.89c3.827.964 2.33 6.91-1.498 5.946-3.827-.963-2.33-6.909 1.498-5.946zM141.8 229.978c3.827.963 2.33 6.911-1.498 5.947-3.828-.963-2.312-6.919 1.498-5.947zM86.163 221.376c3.827.964 2.33 6.911-1.498 5.948-3.827-.964-2.338-6.92 1.498-5.948z"/>
        <path fill="#FFF" d="M116.433 47.447c3.827.963 2.329 6.91-1.498 5.947-3.828-.964-2.347-6.91 1.498-5.947zM77.553 33.146c3.827.964 2.329 6.912-1.498 5.948-3.828-.964-2.304-6.911 1.498-5.948z"/>
        <path fill="#FAFAFA" d="M148.033 72.574c4.923 1.235 3.005 8.88-1.927 7.646-4.931-1.235-2.995-8.89 1.927-7.646zM87.186 145.751c4.923 1.235 3.005 8.882-1.927 7.647-4.931-1.235-3.039-8.89 1.927-7.647zM145.424 280.117c5.465 1.375 3.337 9.871-2.137 8.496s-3.337-9.871 2.137-8.496zM201.235 80.11c5.466 1.376 3.337 9.872-2.137 8.497s-3.302-9.871 2.137-8.496z"/>
        <g fill="#3AD29F" opacity=".5">
            <path d="M78.43 353.535h-2.628v14.889h2.628z"/>
            <path d="M84.562 362.295v-2.627h-14.89v2.627z"/>
        </g>
        <path fill="#F55F44" d="M24.72 272.963a3.217 3.217 0 0 1-1.752-3.889 1.557 1.557 0 0 0-.188-1.342 1.611 1.611 0 0 0-2.641-.086c-.071.098-.13.204-.176.315a3.215 3.215 0 0 1-3.889 1.752 1.568 1.568 0 0 0-.359-.07 1.616 1.616 0 0 0-1.615 1.051 1.611 1.611 0 0 0 .547 1.848c.098.071.204.13.315.175a3.217 3.217 0 0 1 1.752 3.89 1.557 1.557 0 0 0 .187 1.341 1.611 1.611 0 0 0 2.642.086c.07-.098.13-.204.175-.316a3.214 3.214 0 0 1 3.889-1.75c.117.036.237.06.36.07a1.616 1.616 0 0 0 1.615-1.052 1.611 1.611 0 0 0-.547-1.848 1.48 1.48 0 0 0-.316-.175z" opacity=".5"/>
        <path fill="#665EFF" d="M430.72 422.963a3.214 3.214 0 0 1-1.753-3.888 1.53 1.53 0 0 0 .07-.36 1.61 1.61 0 0 0-2.066-1.65 1.616 1.616 0 0 0-.833.582c-.07.098-.129.204-.175.315a3.217 3.217 0 0 1-3.889 1.752 1.511 1.511 0 0 0-.359-.07 1.614 1.614 0 0 0-1.616 1.05 1.61 1.61 0 0 0 .547 1.849c.098.07.204.129.316.175a3.217 3.217 0 0 1 1.751 3.889c-.037.116-.06.237-.07.359-.022.347.068.69.258.982a1.604 1.604 0 0 0 1.808.667c.333-.1.626-.302.834-.58.07-.098.13-.204.175-.316a3.213 3.213 0 0 1 3.889-1.751c.116.037.237.06.36.07a1.61 1.61 0 0 0 1.615-1.051 1.616 1.616 0 0 0-.548-1.848 1.52 1.52 0 0 0-.315-.176z" opacity=".5"/>
        <path fill="#F55F44" d="M328.131 44.262a3.213 3.213 0 0 1-1.751-3.889c.037-.116.061-.237.07-.359a1.61 1.61 0 0 0-2.066-1.649 1.611 1.611 0 0 0-.833.58 1.53 1.53 0 0 0-.176.316 3.213 3.213 0 0 1-3.888 1.752 1.56 1.56 0 0 0-.36-.07 1.611 1.611 0 0 0-1.068 2.899c.098.07.204.129.315.175a3.215 3.215 0 0 1 1.752 3.889 1.516 1.516 0 0 0-.07.359 1.617 1.617 0 0 0 1.051 1.616 1.612 1.612 0 0 0 1.848-.547c.07-.099.129-.204.175-.316a3.216 3.216 0 0 1 3.889-1.752c.117.038.237.061.359.07a1.614 1.614 0 0 0 1.616-1.05 1.61 1.61 0 0 0-.547-1.849 1.552 1.552 0 0 0-.316-.175zM183.72 35.963a3.215 3.215 0 0 1-1.753-3.889c.038-.116.061-.237.07-.359a1.61 1.61 0 0 0-2.066-1.649 1.61 1.61 0 0 0-.833.58c-.07.099-.129.205-.175.316a3.212 3.212 0 0 1-3.889 1.752 1.542 1.542 0 0 0-.359-.07 1.61 1.61 0 0 0-1.649 2.066c.1.333.302.625.581.833.097.07.203.13.315.175a3.215 3.215 0 0 1 1.752 3.889 1.57 1.57 0 0 0-.07.359 1.61 1.61 0 0 0 2.065 1.649c.333-.099.626-.302.834-.58.07-.098.13-.204.175-.316a3.213 3.213 0 0 1 3.89-1.751c.115.037.236.06.358.07a1.611 1.611 0 0 0 1.068-2.9 1.535 1.535 0 0 0-.315-.175zM453.72 218.963a3.214 3.214 0 0 1-1.753-3.889c.037-.116.061-.237.07-.359a1.614 1.614 0 0 0-2.899-1.068 1.542 1.542 0 0 0-.175.315 3.217 3.217 0 0 1-3.889 1.752 1.521 1.521 0 0 0-.359-.07 1.612 1.612 0 0 0-1.069 2.899c.098.07.204.129.316.175a3.212 3.212 0 0 1 1.751 3.889 1.563 1.563 0 0 0-.07.359 1.614 1.614 0 0 0 1.051 1.616 1.61 1.61 0 0 0 1.848-.548c.071-.097.13-.203.176-.315a3.214 3.214 0 0 1 3.888-1.752c.117.038.237.061.36.071a1.611 1.611 0 0 0 1.068-2.9 1.591 1.591 0 0 0-.315-.175z" opacity=".5"/>
        <g transform="translate(83 88)">
            <g fill-rule="nonzero">
                <use fill="#000" filter="url(#a)" xlink:href="#b"/>
                <use fill="#FEFEFE" xlink:href="#b"/>
            </g>
            <rect width="187" height="14" x="64" y="230" fill="#DCDEE2" fill-rule="nonzero" rx="7"/>
            <rect width="90" height="14" x="112" y="252" fill="#DCDEE2" fill-rule="nonzero" rx="7"/>
            <path fill="#B0B3BA" d="M157 214c41.421 0 75-33.579 75-75s-33.579-75-75-75-75 33.579-75 75 33.579 75 75 75z"/>
            <g transform="translate(82 64)">
                <mask id="d" fill="#fff">
                    <use xlink:href="#c"/>
                </mask>
                <use fill="#F6F6FC" stroke="#DCDEE2" stroke-width="1.6" xlink:href="#c"/>
                <g mask="url(#d)">
                    <path fill="url(#e)" d="M56.932 12.352c-2-8.75 7.483-15.464 17.25-10.855 23 10.855 9.654 27.105 1.404 25.355s-16.654-5.75-18.654-14.5z" transform="translate(23.5 12.5)"/>
                    <path fill="url(#f)" d="M62.5 67.5c-10.742 5.16-12.309 4.884-36-14.5-35.75-29.25-2-56 34.25-41.75C100 28.5 86.85 55.803 62.5 67.5z" transform="translate(23.5 12.5)"/>
                    <path fill="url(#g)" d="M63.5 88c-3.666 8-8.334 12-12 12-3.666 0-8.334-4-12-12V78s-1.632.048-2.75 0c-11.695-.501-15.603-19.313-13.767-38.131C24.327 26.088 36 45 55 31.75c-.75 14.5 5.5 13 8.25 11.25 12.5-5.75 12.75 17.75.395 15.929.005.25-.043 9.94-.145 29.071z" transform="translate(23.5 12.5)"/>
                    <path fill="#FF9768" d="M63 90.5c4.5-.334 10.105-2.85 16.817-7.55C77.761 90.031 72.155 94.216 63 95.5v-5z"/>
                    <path fill="#86BE26" d="M58.866 103.409s.755-5.209 2.523-5.655c1.77-.447 12.108-.5 12.118 1.5.002.367.355 4.301 1.535 4.301 1.179 0 1.482-3.934 1.484-4.301.009-2 10.288-1.923 12.117-1.5 1.829.422 2.516 5.661 2.516 5.661s26.999 12.713 29.841 18.14c2.445 4.667 4.278 15.5 5.5 32.5h-103c1.222-17 3.056-27.833 5.5-32.5 2.841-5.424 29.866-18.147 29.866-18.147z"/>
                    <path fill="#F6F6FC" d="M75 119.5a2 2 0 1 0 0-4 2 2 0 0 0 0 4zm0 10a2 2 0 1 0 0-4 2 2 0 0 0 0 4zm2 8a2 2 0 1 1-4 0 2 2 0 0 1 4 0z"/>
                    <path fill="url(#h)" d="M56.795 27.214c-8 20-3.5 29.75 2.75 41.5s-1.5 22.75-1.5 22.75 9-5.75 9-18.5-9-20.75-1.5-31.25-.75-34.5-8.75-14.5z" transform="translate(23.5 12.5)"/>
                </g>
            </g>
            <g fill-rule="nonzero">
                <path fill="#F6F6FC" d="M5 0h304a5 5 0 0 1 5 5v27H0V5a5 5 0 0 1 5-5z"/>
                <g transform="translate(16 11)">
                    <circle cx="5" cy="5" r="5" fill="#F17272"/>
                    <circle cx="23" cy="5" r="5" fill="#FFCA00"/>
                    <circle cx="41" cy="5" r="5" fill="#86BE26"/>
                </g>
            </g>
        </g>
    </g>
</svg>
