<svg xmlns="http://www.w3.org/2000/svg" xmlns:xlink="http://www.w3.org/1999/xlink" width="474" height="478" viewBox="0 0 474 478">
    <defs>
        <path id="b" d="M30.425 38.971l263.382-.103c6.075-.002 11.001 4.921 11.004 10.996v.008l-.07 149.806c-.002 6.072-4.924 10.994-10.996 10.996l-263.381.11c-6.076.003-11.002-4.92-11.004-10.995v-.008l.07-149.806c.002-6.072 4.923-10.994 10.995-10.996z"/>
        <filter id="a" width="133.3%" height="155.3%" x="-16.6%" y="-16%" filterUnits="objectBoundingBox">
            <feMorphology in="SourceAlpha" radius="2.5" result="shadowSpreadOuter1"/>
            <feOffset dy="20" in="shadowSpreadOuter1" result="shadowOffsetOuter1"/>
            <feGaussianBlur in="shadowOffsetOuter1" result="shadowBlurOuter1" stdDeviation="15"/>
            <feColorMatrix in="shadowBlurOuter1" values="0 0 0 0 0.160784314 0 0 0 0 0.184313725 0 0 0 0 0.258823529 0 0 0 0.1 0"/>
        </filter>
        <rect id="d" width="285.349" height="171.825" x="75.269" y="96.223" rx="11"/>
        <filter id="c" width="133.3%" height="155.3%" x="-16.6%" y="-16%" filterUnits="objectBoundingBox">
            <feMorphology in="SourceAlpha" radius="2.5" result="shadowSpreadOuter1"/>
            <feOffset dy="20" in="shadowSpreadOuter1" result="shadowOffsetOuter1"/>
            <feGaussianBlur in="shadowOffsetOuter1" result="shadowBlurOuter1" stdDeviation="15"/>
            <feColorMatrix in="shadowBlurOuter1" values="0 0 0 0 0.160784314 0 0 0 0 0.184313725 0 0 0 0 0.258823529 0 0 0 0.1 0"/>
        </filter>
    </defs>
    <g fill="none" fill-rule="evenodd">
        <path stroke="#C4E58B" stroke-dasharray="5" stroke-width="1.6" d="M236.961 477.095c130.366 0 236.048-106.577 236.048-238.048C473.009 107.577 367.327 1 236.961 1 106.596 1 .914 107.577.914 239.047s105.682 238.048 236.047 238.048z" opacity=".4"/>
        <path stroke="#C4E58B" stroke-dasharray="5" stroke-width="1.6" d="M236.962 417.039c99.407 0 179.992-80.586 179.992-179.992 0-99.407-80.585-179.992-179.992-179.992-99.406 0-179.991 80.585-179.991 179.992 0 99.406 80.585 179.992 179.991 179.992z" opacity=".4"/>
        <path fill="#FFF" d="M326.905 173.107c-3.924.429-3.259 6.526.665 6.132 3.924-.394 3.258-6.517-.665-6.132z"/>
        <path fill="#FAFAFA" d="M352.043 241.769c-3.924.43-3.258 6.526.666 6.132 3.924-.394 3.258-6.561-.666-6.132zM343.161 289.441c-3.924.43-3.258 6.527.666 6.132 3.923-.394 3.267-6.561-.666-6.132zM366.592 350.314c-3.924.43-3.259 6.526.665 6.132 3.924-.394 3.25-6.561-.665-6.132zM422.865 349.44c-3.924.429-3.258 6.526.666 6.132 3.924-.395 3.267-6.57-.666-6.132z"/>
        <path fill="#FFF" d="M416.761 173.004c-3.924.429-3.258 6.524.666 6.13 3.924-.394 3.258-6.559-.666-6.13zM457.198 164.166c-3.924.429-3.258 6.525.666 6.131 3.924-.394 3.267-6.56-.666-6.131z"/>
        <path fill="#FAFAFA" d="M382.007 193.551c-5.045.552-4.195 8.39.876 7.839 5.071-.552 4.169-8.391-.876-7.839zM432.281 274.392c-5.045.552-4.195 8.391.876 7.839 5.071-.552 4.16-8.4-.876-7.839zM356.08 399.485c-5.605.613-4.659 9.319.955 8.706 5.615-.613 4.677-9.328-.955-8.706zM328.271 193.713c-5.605.613-4.659 9.32.955 8.707 5.614-.613 4.66-9.321-.955-8.707z"/>
        <path fill="#FFF" d="M205.428 59.937c3.828.964 2.33 6.911-1.498 5.948-3.827-.964-2.347-6.911 1.498-5.948z"/>
        <path fill="#FAFAFA" d="M171.095 124.453c3.827.963 2.33 6.91-1.498 5.947-3.827-.964-2.33-6.911 1.498-5.947zM173.347 172.89c3.827.964 2.33 6.91-1.498 5.946-3.827-.963-2.33-6.909 1.498-5.946zM141.8 229.978c3.827.963 2.33 6.911-1.498 5.947-3.828-.963-2.312-6.919 1.498-5.947zM86.163 221.376c3.827.964 2.33 6.911-1.498 5.948-3.827-.964-2.338-6.92 1.498-5.948z"/>
        <path fill="#FFF" d="M116.433 47.447c3.827.963 2.329 6.91-1.498 5.947-3.828-.964-2.347-6.91 1.498-5.947zM77.553 33.146c3.827.964 2.329 6.912-1.498 5.948-3.828-.964-2.304-6.911 1.498-5.948z"/>
        <path fill="#FAFAFA" d="M148.033 72.574c4.923 1.235 3.005 8.88-1.927 7.646-4.931-1.235-2.995-8.89 1.927-7.646zM87.186 145.751c4.923 1.235 3.005 8.882-1.927 7.647-4.931-1.235-3.039-8.89 1.927-7.647zM145.424 280.117c5.465 1.375 3.337 9.871-2.137 8.496s-3.337-9.871 2.137-8.496zM201.235 80.11c5.466 1.376 3.337 9.872-2.137 8.497s-3.302-9.871 2.137-8.496z"/>
        <g fill="#3AD29F" opacity=".5">
            <path d="M78.43 353.535h-2.628v14.889h2.628z"/>
            <path d="M84.562 362.295v-2.627h-14.89v2.627z"/>
        </g>
        <path fill="#F55F44" d="M24.72 272.963a3.217 3.217 0 0 1-1.752-3.889 1.557 1.557 0 0 0-.188-1.342 1.611 1.611 0 0 0-2.641-.086c-.071.098-.13.204-.176.315a3.215 3.215 0 0 1-3.889 1.752 1.568 1.568 0 0 0-.359-.07 1.616 1.616 0 0 0-1.615 1.051 1.611 1.611 0 0 0 .547 1.848c.098.071.204.13.315.175a3.217 3.217 0 0 1 1.752 3.89 1.557 1.557 0 0 0 .187 1.341 1.611 1.611 0 0 0 2.642.086c.07-.098.13-.204.175-.316a3.214 3.214 0 0 1 3.889-1.75c.117.036.237.06.36.07a1.616 1.616 0 0 0 1.615-1.052 1.611 1.611 0 0 0-.547-1.848 1.48 1.48 0 0 0-.316-.175z" opacity=".5"/>
        <path fill="#665EFF" d="M430.72 422.963a3.214 3.214 0 0 1-1.753-3.888 1.53 1.53 0 0 0 .07-.36 1.61 1.61 0 0 0-2.066-1.65 1.616 1.616 0 0 0-.833.582c-.07.098-.129.204-.175.315a3.217 3.217 0 0 1-3.889 1.752 1.511 1.511 0 0 0-.359-.07 1.614 1.614 0 0 0-1.616 1.05 1.61 1.61 0 0 0 .547 1.849c.098.07.204.129.316.175a3.217 3.217 0 0 1 1.751 3.889c-.037.116-.06.237-.07.359-.022.347.068.69.258.982a1.604 1.604 0 0 0 1.808.667c.333-.1.626-.302.834-.58.07-.098.13-.204.175-.316a3.213 3.213 0 0 1 3.889-1.751c.116.037.237.06.36.07a1.61 1.61 0 0 0 1.615-1.051 1.616 1.616 0 0 0-.548-1.848 1.52 1.52 0 0 0-.315-.176z" opacity=".5"/>
        <path fill="#F55F44" d="M328.131 44.262a3.213 3.213 0 0 1-1.751-3.889c.037-.116.061-.237.07-.359a1.61 1.61 0 0 0-2.066-1.649 1.611 1.611 0 0 0-.833.58 1.53 1.53 0 0 0-.176.316 3.213 3.213 0 0 1-3.888 1.752 1.56 1.56 0 0 0-.36-.07 1.611 1.611 0 0 0-1.068 2.899c.098.07.204.129.315.175a3.215 3.215 0 0 1 1.752 3.889 1.516 1.516 0 0 0-.07.359 1.617 1.617 0 0 0 1.051 1.616 1.612 1.612 0 0 0 1.848-.547c.07-.099.129-.204.175-.316a3.216 3.216 0 0 1 3.889-1.752c.117.038.237.061.359.07a1.614 1.614 0 0 0 1.616-1.05 1.61 1.61 0 0 0-.547-1.849 1.552 1.552 0 0 0-.316-.175zM183.72 35.963a3.215 3.215 0 0 1-1.753-3.889c.038-.116.061-.237.07-.359a1.61 1.61 0 0 0-2.066-1.649 1.61 1.61 0 0 0-.833.58c-.07.099-.129.205-.175.316a3.212 3.212 0 0 1-3.889 1.752 1.542 1.542 0 0 0-.359-.07 1.61 1.61 0 0 0-1.649 2.066c.1.333.302.625.581.833.097.07.203.13.315.175a3.215 3.215 0 0 1 1.752 3.889 1.57 1.57 0 0 0-.07.359 1.61 1.61 0 0 0 2.065 1.649c.333-.099.626-.302.834-.58.07-.098.13-.204.175-.316a3.213 3.213 0 0 1 3.89-1.751c.115.037.236.06.358.07a1.611 1.611 0 0 0 1.068-2.9 1.535 1.535 0 0 0-.315-.175zM453.72 218.963a3.214 3.214 0 0 1-1.753-3.889c.037-.116.061-.237.07-.359a1.614 1.614 0 0 0-2.899-1.068 1.542 1.542 0 0 0-.175.315 3.217 3.217 0 0 1-3.889 1.752 1.521 1.521 0 0 0-.359-.07 1.612 1.612 0 0 0-1.069 2.899c.098.07.204.129.316.175a3.212 3.212 0 0 1 1.751 3.889 1.563 1.563 0 0 0-.07.359 1.614 1.614 0 0 0 1.051 1.616 1.61 1.61 0 0 0 1.848-.548c.071-.097.13-.203.176-.315a3.214 3.214 0 0 1 3.888-1.752c.117.038.237.061.36.071a1.611 1.611 0 0 0 1.068-2.9 1.591 1.591 0 0 0-.315-.175z" opacity=".5"/>
        <g transform="translate(52 102)">
            <g opacity=".5" transform="rotate(-17.26 162.085 124.827)">
                <use fill="#000" filter="url(#a)" xlink:href="#b"/>
                <use fill="#292F42" xlink:href="#b"/>
            </g>
            <path fill="#F9FAFC" d="M7.083 106.794l272.5-84.773 7.302 23.532-272.5 84.773zM68.19 210.53l59.687-18.573a5 5 0 0 1 6.26 3.29v.003l.188.627a5 5 0 0 1-3.29 6.256L71.35 220.71a5 5 0 0 1-6.261-3.293l-.187-.627a5 5 0 0 1 3.29-6.256zM62.86 193.355l110.501-34.38a5 5 0 0 1 6.26 3.29l.001.003.187.627a5 5 0 0 1-3.29 6.256l-110.5 34.384a5 5 0 0 1-6.26-3.293l-.188-.627a5 5 0 0 1 3.29-6.256z"/>
            <use fill="#000" filter="url(#c)" xlink:href="#d"/>
            <use fill="#868992" xlink:href="#d"/>
            <g fill="#F9FAFC" transform="translate(99 173.241)">
                <rect width="8" height="15" rx="2"/>
                <rect width="8" height="15" x="10" rx="2"/>
                <rect width="8" height="15" x="21" rx="2"/>
                <rect width="8" height="15" x="50" rx="2"/>
                <rect width="8" height="15" x="61" rx="2"/>
                <rect width="8" height="15" x="80" rx="2"/>
                <rect width="8" height="15" x="90" rx="2"/>
                <rect width="8" height="15" x="101" rx="2"/>
                <rect width="8" height="15" x="118" rx="2"/>
                <rect width="8" height="15" x="129" rx="2"/>
                <rect width="8" height="15" x="140" rx="2"/>
                <rect width="8" height="15" x="40" rx="2"/>
            </g>
            <rect width="120.501" height="10.656" x="97.549" y="242.406" fill="#F9FAFC" rx="5"/>
            <rect width="72.712" height="10.656" x="98" y="224" fill="#F9FAFC" rx="5"/>
            <rect width="35.712" height="10.656" x="296" y="224" fill="#F9FAFC" rx="5"/>
            <rect width="44.712" height="10.656" x="287" y="242" fill="#F9FAFC" rx="5"/>
            <rect width="44.712" height="10.656" x="287" y="242" fill="#F9FAFC" rx="5"/>
            <rect width="50.712" height="10.656" x="98" y="120" fill="#F9FAFC" rx="5"/>
        </g>
    </g>
</svg>
